<!-- Generated by IcoMoon.io -->
<svg version="1.1" xmlns="http://www.w3.org/2000/svg" width="24" height="32" viewBox="0 0 24 32">
<title>adres</title>
<path fill="#fff" d="M12.313 32c-0.206 0-0.419 0-0.625 0-0.744-0.231-1.275-0.738-1.756-1.325-0.625-0.769-1.281-1.5-1.912-2.262-2.037-2.469-3.956-5.019-5.487-7.837-1.063-1.962-1.913-4.012-2.306-6.225-0.094-0.531-0.15-1.063-0.225-1.6 0-0.5 0-1 0-1.5 0.063-0.431 0.119-0.863 0.188-1.287 0.775-4.831 4.644-8.806 9.438-9.713 0.537-0.1 1.088-0.169 1.625-0.25 0.5 0 1 0 1.5 0 0.431 0.063 0.863 0.119 1.287 0.188 4.837 0.781 8.794 4.625 9.712 9.438 0.1 0.537 0.169 1.081 0.25 1.625 0 0.5 0 1 0 1.5-0.019 0.1-0.044 0.2-0.063 0.3-0.181 0.981-0.3 1.975-0.563 2.931-0.7 2.575-1.975 4.888-3.419 7.106-1.75 2.681-3.788 5.137-5.869 7.563-0.5 0.581-1.019 1.119-1.775 1.35zM11.981 30.006c0.106-0.1 0.175-0.156 0.238-0.225 1.438-1.744 2.912-3.456 4.3-5.238 1.769-2.281 3.319-4.713 4.394-7.412 0.788-1.975 1.262-4.006 1.044-6.15-0.5-4.844-4.438-8.7-9.306-8.956-3.931-0.212-7.025 1.406-9.15 4.725-1.656 2.588-1.856 5.419-1.087 8.35 0.594 2.244 1.631 4.287 2.85 6.25 1.731 2.788 3.812 5.306 5.95 7.781 0.244 0.281 0.494 0.556 0.769 0.875z"></path>
<path fill="#fff" d="M17.994 11.756c-0.006 3.287-2.7 5.981-5.988 5.981-3.3 0-6-2.7-6-6.006 0.006-3.306 2.706-5.987 6.019-5.981 3.287 0.019 5.969 2.712 5.969 6.006zM11.994 6.737c-2.763 0-5 2.244-5 5.006s2.244 5.006 5 5.012c2.775 0.006 5.019-2.244 5.019-5.025-0.006-2.763-2.25-4.994-5.019-4.994z"></path>
</svg>
