<!-- Generated by IcoMoon.io -->
<svg version="1.1" xmlns="http://www.w3.org/2000/svg" width="40" height="32" viewBox="0 0 40 32">
<title>book</title>
<path fill="#fff" d="M0 31.061c0-8.576 0-17.152 0-25.749 0.341-0.768 0.917-1.045 1.749-1.003 0.768 0.043 1.536 0 2.347 0 0-0.853 0-1.643 0-2.432 0-1.301 0.427-1.728 1.728-1.835 1.728-0.128 3.435-0.085 5.12 0.192 3.371 0.576 6.336 1.877 8.619 4.544 0.064 0.085 0.171 0.149 0.256 0.213 0.128-0.149 0.256-0.256 0.363-0.384 1.301-1.493 2.901-2.581 4.736-3.328 2.923-1.195 5.973-1.493 9.088-1.216 1.088 0.107 1.515 0.576 1.515 1.685 0 0.832 0 1.664 0 2.56 0.896 0 1.749 0 2.581 0 1.003 0 1.515 0.512 1.515 1.536 0 8.192 0 16.405 0 24.597 0 1.216-0.768 1.792-1.92 1.451-2.752-0.811-5.547-1.344-8.405-1.451-2.965-0.128-5.867 0.171-8.619 1.344-0.597 0.256-1.109 0.256-1.707-0.021-1.792-0.789-3.669-1.173-5.611-1.301-3.819-0.277-7.531 0.277-11.179 1.365-1.195 0.341-1.557 0.213-2.176-0.768zM18.453 26.859c0.021-0.213 0.021-0.299 0.021-0.405 0-6.101 0-12.203 0-18.304 0-0.192-0.064-0.384-0.149-0.555-0.704-1.152-1.643-2.112-2.773-2.837-2.496-1.621-5.291-2.091-8.213-2.112-0.448 0-0.576 0.128-0.576 0.576 0.021 6.485 0 12.971 0.021 19.435 0 0.171 0.021 0.341 0.021 0.555 4.267-0.043 8.235 0.747 11.648 3.648zM32.811 23.232c0.021-0.171 0.021-0.277 0.021-0.384 0-6.571 0-13.163 0-19.733 0-0.363-0.128-0.469-0.469-0.427-1.451 0.149-2.901 0.171-4.309 0.448-2.773 0.576-5.12 1.899-6.699 4.352-0.149 0.235-0.235 0.555-0.235 0.811 0 5.973 0 11.968 0 17.941 0 0.171 0 0.341 0 0.619 3.435-2.88 7.403-3.691 11.691-3.627zM35.499 7.019c0 0.277 0 0.491 0 0.704 0 5.547 0 11.072 0 16.619 0 1.259-0.555 1.771-1.813 1.643-2.112-0.192-4.224-0.043-6.272 0.512-1.152 0.32-2.261 0.768-3.243 1.493 2.133-0.256 4.267-0.363 6.4-0.128 2.112 0.235 4.224 0.597 6.336 0.896 0-7.189 0-14.464 0-21.76-0.491 0.021-0.896 0.021-1.408 0.021zM2.688 7.019c0 7.317 0 14.592 0 21.888 4.224-1.067 8.448-1.472 12.736-0.917-0.085-0.107-0.171-0.171-0.256-0.213-1.173-0.725-2.432-1.173-3.755-1.472-1.813-0.384-3.648-0.512-5.504-0.32-0.64 0.064-1.259 0.021-1.6-0.619-0.171-0.32-0.213-0.725-0.213-1.088-0.021-5.547 0-11.093 0-16.64 0-0.213-0.021-0.405-0.021-0.64-0.491 0.021-0.917 0.021-1.387 0.021z"></path>
</svg>
