<!-- Generated by IcoMoon.io -->
<svg version="1.1" xmlns="http://www.w3.org/2000/svg" width="35" height="32" viewBox="0 0 35 32">
<title>building</title>
<path fill="#fff" d="M34.719 7.317c-0.19 0.759-0.563 1.377-1.227 1.838-0.17 0.115-0.197 0.461-0.264 0.705-0.176 0.61-0.17 0.61 0.373 0.929 0.868 0.509 1.234 1.349 1.024 2.333-0.237 1.065-1.044 1.831-2.014 1.926-1.336 0.122-2.468-0.82-2.428-2.034 0.007-0.149 0.034-0.339 0.129-0.441 0.129-0.129 0.346-0.278 0.502-0.251 0.142 0.027 0.285 0.251 0.366 0.414 0.102 0.197 0.115 0.441 0.217 0.637 0.217 0.414 0.576 0.597 1.037 0.549 0.448-0.041 0.759-0.285 0.922-0.698 0.17-0.434 0.061-0.827-0.271-1.146-0.156-0.149-0.325-0.285-0.502-0.4-0.759-0.481-1.309-1.105-1.458-2.021-0.054-0.325-0.176-0.604-0.495-0.759-0.061-0.027-0.122-0.081-0.149-0.136-0.244-0.427-0.624-0.448-1.065-0.441-3.424 0.014-6.849 0.007-10.273 0.007-0.108 0-0.217 0.014-0.359 0.020 0 6.815 0 13.616 0 20.438-0.556 0-1.078 0-1.655 0 0-0.543 0-1.085 0-1.736-0.231 0.224-0.393 0.373-0.543 0.522-0.21 0.203-0.461 0.387-0.617 0.631-0.475 0.732-1.18 0.637-1.926 0.583 1.044-1.044 2.068-2.061 3.065-3.058-1.865-1.865-3.696-3.696-5.554-5.554 0 2.868 0 5.73 0 8.612-0.57 0-1.092 0-1.648 0 0-6.801 0-13.596 0-20.425-0.556 0-1.078 0-1.627 0-0.224 0.861-0.848 1.112-1.688 1.099-1.614-0.027-3.235-0.034-4.848 0-0.841 0.020-1.451-0.231-1.75-1.058 0-2.441 0-4.882 0-7.324 0.224-0.624 0.624-1.065 1.329-1.071 1.885-0.014 3.77-0.014 5.662 0 0.515 0 0.956 0.231 1.139 0.712 0.142 0.38 0.359 0.42 0.705 0.42 5.967-0.007 11.928-0.007 17.895-0.014 0.278 0 0.481 0.068 0.685 0.278 0.8 0.834 1.634 1.648 2.455 2.475 0.332 0.339 0.651 0.685 0.97 1.017 0.136-0.068 0.217-0.109 0.298-0.149 1.458-0.692 3.133 0.109 3.513 1.675 0.020 0.075 0.047 0.149 0.075 0.224 0 0.224 0 0.448 0 0.671zM11.684 18.682c1.804 1.811 3.621 3.635 5.405 5.418 0-3.56 0-7.202 0-10.829-1.831 1.831-3.648 3.655-5.405 5.411zM11.569 8.334c0 3.018 0 5.981 0 8.883 1.817-1.817 3.648-3.648 5.493-5.493-1.071-1.065-2.17-2.17-3.275-3.268-0.061-0.061-0.17-0.115-0.264-0.115-0.644-0.014-1.288-0.007-1.953-0.007zM20.465 6.673c-1.302-1.295-2.577-2.563-3.784-3.77-1.248 1.241-2.523 2.509-3.784 3.77 2.489 0 5.018 0 7.568 0zM21.55 6.503c1.255-1.241 2.523-2.502 3.73-3.709-2.414 0-4.93 0-7.459 0 1.288 1.275 2.55 2.536 3.73 3.709zM8.32 2.787c-0.068 0.305-0.041 0.542 0.203 0.773 0.766 0.732 1.512 1.492 2.258 2.251 0.285 0.285 0.549 0.59 0.759 0.814 1.336-1.329 2.611-2.597 3.865-3.838-2.319 0-4.699 0-7.086 0zM22.798 6.679c0.075 0.007 0.136 0.014 0.203 0.014 2.129 0 4.265 0.007 6.395-0.007 0.122 0 0.332-0.061 0.353-0.142 0.061-0.203 0.197-0.407-0.041-0.644-1.004-0.97-1.987-1.973-2.977-2.957-0.047-0.047-0.102-0.081-0.115-0.088-1.275 1.282-2.536 2.55-3.818 3.825zM10.355 6.686c-0.678-0.685-1.383-1.404-2.068-2.095 0 0.583-0.007 1.221 0.007 1.865 0 0.081 0.102 0.224 0.163 0.224 0.671 0.014 1.336 0.007 1.899 0.007zM15.169 8.348c0.637 0.637 1.282 1.288 1.926 1.933 0-0.617 0-1.261 0-1.933-0.665 0-1.309 0-1.926 0z"></path>
<path fill="#fff" d="M0 30.101c0.17-0.305 0.427-0.414 0.78-0.407 6.056 0.007 12.111 0.007 18.167 0.007 0.515 0 0.712 0.19 0.712 0.719 0 0.305 0 0.61 0 0.915-0.007 0.461-0.217 0.665-0.705 0.665-2.089 0-4.177 0-6.273 0-3.953 0-7.907-0.007-11.86 0.007-0.366 0-0.637-0.095-0.821-0.407 0-0.502 0-0.997 0-1.499z"></path>
<path fill="#fff" d="M34.719 31.525c-0.217 0.373-0.549 0.468-0.963 0.461-1.173-0.020-2.353-0.007-3.526-0.007-0.583 0-0.787-0.21-0.787-0.793 0-0.488-0.007-0.97 0-1.458 0.007-0.407 0.224-0.624 0.631-0.631 1.322-0.007 2.645 0.007 3.967-0.007 0.353 0 0.515 0.217 0.678 0.468 0 0.658 0 1.316 0 1.967z"></path>
<path fill="#fff" d="M34.719 28.203c-0.217 0.373-0.542 0.488-0.963 0.461-0.427-0.027-0.854-0.007-1.288-0.007-0.502 0-0.732-0.224-0.732-0.712-0.007-0.509-0.007-1.017 0-1.526 0.007-0.434 0.217-0.637 0.644-0.644 0.475-0.007 0.949 0.020 1.424-0.007 0.414-0.027 0.726 0.095 0.915 0.475 0 0.651 0 1.309 0 1.96z"></path>
<path fill="#fff" d="M23.090 25.782c0.644 0 1.288 0 1.933 0 0.454 0 0.665 0.21 0.671 0.658 0.007 0.522 0.007 1.038 0 1.56-0.007 0.414-0.237 0.658-0.651 0.658-1.322 0.007-2.645 0.007-3.967 0-0.414 0-0.651-0.244-0.651-0.658-0.007-0.529-0.007-1.065 0-1.594 0.007-0.407 0.224-0.624 0.631-0.631 0.678 0 1.356 0.007 2.034 0.007z"></path>
<path fill="#fff" d="M28.698 25.775c0.644 0 1.288 0 1.933 0 0.434 0 0.671 0.231 0.678 0.665 0.007 0.522 0.007 1.038 0 1.56-0.007 0.407-0.251 0.651-0.665 0.658-1.302 0.007-2.597 0.007-3.899 0-0.434 0-0.678-0.264-0.685-0.712-0.007-0.475-0.007-0.949 0-1.424 0.007-0.522 0.217-0.746 0.739-0.746 0.631 0 1.261 0 1.899 0z"></path>
<path fill="#fff" d="M26.446 29.098c0.631 0 1.268 0 1.899 0 0.461 0 0.671 0.203 0.678 0.651 0.007 0.522 0.007 1.038 0 1.56-0.007 0.42-0.231 0.665-0.637 0.665-1.302 0.007-2.597 0.007-3.899 0-0.407 0-0.651-0.258-0.658-0.665-0.007-0.522-0.007-1.038 0-1.56 0.007-0.414 0.244-0.651 0.651-0.651 0.651 0 1.309 0 1.967 0z"></path>
<path fill="#fff" d="M26.473 22.513c0.617 0 1.241 0 1.858 0 0.488 0 0.685 0.19 0.685 0.665 0.007 0.522 0.007 1.038 0 1.56-0.007 0.407-0.21 0.644-0.617 0.651-1.295 0.014-2.597 0.014-3.892 0-0.42-0.007-0.631-0.244-0.637-0.671-0.007-0.509-0.007-1.017 0-1.526 0.007-0.495 0.197-0.678 0.705-0.685 0.631 0.007 1.261 0.007 1.899 0.007z"></path>
<path fill="#fff" d="M21.923 29.098c0.285 0 0.563-0.007 0.848 0 0.366 0.014 0.597 0.237 0.604 0.59 0.014 0.556 0.007 1.105 0 1.661-0.007 0.366-0.244 0.617-0.617 0.624-0.576 0.014-1.153 0.014-1.729 0-0.366-0.007-0.597-0.264-0.604-0.637-0.007-0.543-0.007-1.085 0-1.627 0.007-0.38 0.231-0.604 0.617-0.61 0.292-0.007 0.583 0 0.882 0 0 0 0 0 0 0z"></path>
</svg>
