<!-- Generated by IcoMoon.io -->
<svg version="1.1" xmlns="http://www.w3.org/2000/svg" width="37" height="32" viewBox="0 0 37 32">
<title>cash</title>
<path fill="#fff" d="M32 9.13v-9.13h-25.13c-3.826 0-6.87 3.043-6.87 6.87v20.565c0 2.522 2.043 4.565 4.565 4.565h27.435c2.522 0 4.565-2.043 4.565-4.565v-18.304h-4.565zM6.87 4.565h20.565v4.565h-20.565c-1.261 0-2.304-1.043-2.304-2.304 0-1.217 1.043-2.261 2.304-2.261zM32 27.435h-27.435v-13.739h27.435v13.739zM25.13 22.87c-1.261 0-2.261-1.043-2.304-2.304 0-1.261 1.043-2.304 2.304-2.304s2.304 1.043 2.304 2.304c0 1.261-1.043 2.304-2.304 2.304z"></path>
</svg>
