<!-- Generated by IcoMoon.io -->
<svg version="1.1" xmlns="http://www.w3.org/2000/svg" width="56" height="32" viewBox="0 0 56 32">
<title>chevron-top</title>
<path fill="#fff" d="M27.989 10.721c2.324 2.237 4.611 4.423 6.885 6.61 4.861 4.673 9.734 9.346 14.594 14.007 0.925 0.887 1.599 0.875 2.524-0.025 1.112-1.087 2.237-2.174 3.349-3.274 0.837-0.825 0.837-1.549 0-2.349-8.709-8.359-17.418-16.718-26.127-25.078-0.887-0.85-1.624-0.825-2.587 0.112-7.372 7.085-14.744 14.157-22.116 21.242-1.274 1.225-2.562 2.449-3.824 3.674-0.9 0.875-0.9 1.574-0.012 2.449 1.125 1.112 2.262 2.212 3.399 3.311 0.837 0.812 1.537 0.8 2.387-0.012 6.997-6.722 13.995-13.432 20.992-20.155 0.15-0.15 0.312-0.3 0.537-0.512z"></path>
</svg>
