<!-- Generated by IcoMoon.io -->
<svg version="1.1" xmlns="http://www.w3.org/2000/svg" width="32" height="32" viewBox="0 0 32 32">
<title>fb</title>
<path fill="#fff" d="M24.533 0h-17.067c-4.128 0-7.467 3.339-7.467 7.467v17.067c0 4.128 3.339 7.467 7.467 7.467h17.067c4.128 0 7.467-3.339 7.467-7.467v-17.067c0-4.128-3.339-7.467-7.467-7.467zM21.344 8.971c0 0.224 0 0.213-0.224 0.224-0.747 0.011-1.493 0-2.24 0.043-0.544 0.032-0.981 0.288-1.152 0.843-0.064 0.213-0.107 0.437-0.107 0.651-0.011 0.789-0.011 1.568-0.011 2.357 0 0.043 0.011 0.096 0.011 0.16 1.195 0 2.379 0 3.584 0-0.053 0.448-0.107 0.875-0.16 1.312-0.096 0.725-0.192 1.451-0.277 2.176-0.021 0.149-0.064 0.203-0.224 0.203-0.907-0.011-1.813 0-2.72 0-0.064 0-0.139 0.011-0.213 0.011 0 3.093 0 6.176 0 9.28-0.117 0-3.627 0.011-3.819 0.011 0-3.115 0-6.197 0-9.301-0.085 0-0.149 0-0.224 0-0.885 0-1.781 0-2.667 0-0.245 0-0.245 0-0.245-0.235 0-1.077 0-2.144 0-3.221 0-0.224 0-0.224 0.224-0.224 0.907 0 1.813 0 2.72 0 0.064 0 0.139-0.011 0.213-0.011 0-0.075 0-0.139 0-0.192 0-0.8-0.011-1.611 0-2.411 0.011-0.405 0.032-0.821 0.096-1.227 0.128-0.8 0.437-1.536 0.971-2.165 0.885-1.024 2.048-1.451 3.36-1.472 0.96-0.011 1.931 0.075 2.891 0.107 0.171 0.011 0.203 0.075 0.203 0.224 0 0.949 0.011 1.909 0.011 2.859z"></path>
</svg>
