<!-- Generated by IcoMoon.io -->
<svg version="1.1" xmlns="http://www.w3.org/2000/svg" width="31" height="32" viewBox="0 0 31 32">
<title>gearwheel</title>
<path fill="#fff" d="M13.022 28.843c0.2 1.838-0.802 3.132-2.397 3.157-1.654 0.033-2.64-1.194-2.531-3.099-0.677-0.309-1.362-0.568-1.996-0.936-0.626-0.359-1.186-0.819-1.821-1.27-0.727 0.61-1.587 0.877-2.573 0.535-0.643-0.226-1.119-0.652-1.42-1.27-0.677-1.387-0.058-2.765 1.587-3.55-0.326-1.445-0.342-2.907 0-4.352-1.804-0.994-2.33-2.447-1.445-3.842 0.693-1.078 2.406-1.696 3.892-0.426 1.086-1.011 2.33-1.762 3.801-2.18-0.184-0.986 0.017-1.846 0.76-2.523 0.526-0.484 1.161-0.702 1.879-0.643 1.529 0.117 2.514 1.47 2.239 3.149 1.428 0.434 2.706 1.153 3.784 2.188 1.604-1.086 3.174-0.852 3.984 0.56 0.794 1.387 0.209 2.857-1.52 3.7 0.342 1.445 0.351 2.898 0 4.343 1.737 0.894 2.314 2.339 1.512 3.725-0.81 1.395-2.305 1.604-3.984 0.543-1.052 1.036-2.305 1.754-3.75 2.188zM15.286 20.222c0-2.614-2.113-4.719-4.728-4.711s-4.736 2.13-4.728 4.728c0.008 2.598 2.155 4.736 4.736 4.728 2.614-0.025 4.719-2.138 4.719-4.744z"></path>
<path fill="#fff" d="M17.424 11.594c-0.71 0.743-1.62 0.844-2.28 0.209-0.693-0.677-0.601-1.554 0.209-2.339-0.226-0.877-0.434-1.712-0.66-2.589-1.019-0.259-1.554-0.986-1.32-1.879 0.251-0.936 1.052-1.286 2.097-0.994 0.652-0.585 1.261-1.119 1.854-1.671 0.058-0.058 0.084-0.192 0.067-0.284-0.234-1.044 0.192-1.821 1.128-2.013 0.852-0.184 1.57 0.393 1.779 1.378 0.86 0.242 1.696 0.484 2.573 0.735 0.827-0.794 1.712-0.86 2.364-0.134 0.61 0.685 0.484 1.604-0.259 2.23 0.184 0.852 0.351 1.654 0.543 2.456 0.017 0.075 0.134 0.167 0.217 0.192 1.002 0.334 1.462 1.094 1.169 1.955-0.242 0.727-1.136 1.303-2.122 0.844-0.008-0.008-0.025 0 0.050 0-0.668 0.652-1.286 1.261-1.938 1.888 0.284 1.044-0.092 1.879-0.994 2.097-0.927 0.226-1.646-0.317-1.888-1.362-0.869-0.234-1.696-0.468-2.589-0.718zM22.962 6.866c0-1.562-1.245-2.815-2.798-2.823-1.57-0.008-2.84 1.245-2.84 2.823-0.008 1.562 1.27 2.832 2.84 2.823 1.554-0.008 2.807-1.27 2.798-2.823z"></path>
<path fill="#fff" d="M26.779 23.655c-0.718 0-1.378 0-2.063 0-0.242 0.585-0.66 0.944-1.345 0.827-0.777-0.125-1.203-0.969-0.819-1.662 0.125-0.226 0.117-0.351-0.050-0.535-0.184-0.2-0.342-0.434-0.484-0.677s-0.242-0.501-0.368-0.752c-1.027-0.084-1.487-0.443-1.487-1.169s0.443-1.103 1.353-1.178c0.326-0.61 0.643-1.194 0.919-1.712-0.075-0.393-0.217-0.768-0.192-1.128 0.033-0.484 0.376-0.794 0.86-0.902 0.501-0.117 0.969 0.067 1.22 0.501 0.117 0.192 0.209 0.267 0.451 0.242 0.493-0.050 0.994-0.033 1.495-0.058 0.117-0.008 0.276-0.050 0.326-0.134 0.451-0.702 1.078-0.902 1.679-0.526 0.585 0.359 0.693 1.044 0.301 1.696 0.326 0.576 0.626 1.128 0.952 1.671 0.042 0.075 0.2 0.117 0.309 0.117 0.718 0.025 1.228 0.484 1.245 1.144 0.017 0.643-0.476 1.128-1.203 1.194-0.109 0.008-0.251 0.092-0.301 0.184-0.15 0.267-0.234 0.56-0.384 0.827-0.142 0.251-0.326 0.484-0.493 0.727 0.484 0.735 0.468 1.428-0.301 1.888-0.585 0.368-1.203 0.117-1.62-0.585zM27.815 19.579c0-1.22-0.986-2.205-2.197-2.205-1.203 0-2.197 1.002-2.188 2.214 0 1.203 1.011 2.197 2.222 2.188 1.186-0.017 2.163-1.002 2.163-2.197z"></path>
</svg>
