<!-- Generated by IcoMoon.io -->
<svg version="1.1" xmlns="http://www.w3.org/2000/svg" width="32" height="32" viewBox="0 0 32 32">
<title>google</title>
<path fill="#fff" d="M24.533 0h-17.067c-4.128 0-7.467 3.339-7.467 7.467v17.067c0 4.128 3.339 7.467 7.467 7.467h17.067c4.128 0 7.467-3.339 7.467-7.467v-17.067c0-4.128-3.339-7.467-7.467-7.467zM24.992 16.523c-0.043 1.461-0.341 2.869-1.013 4.171-1.184 2.272-3.040 3.68-5.525 4.245-2.432 0.544-4.757 0.277-6.912-1.013-2.571-1.536-4.096-3.819-4.459-6.795-0.565-4.619 2.304-8.853 6.795-10.005 2.987-0.757 5.717-0.171 8.128 1.792 0.085 0.064 0.16 0.149 0.245 0.213 0.021 0.021 0.043 0.043 0.064 0.064-0.864 0.864-1.717 1.717-2.581 2.571-0.064-0.053-0.149-0.128-0.224-0.192-1.856-1.547-4.576-1.6-6.549-0.075-1.771 1.365-2.539 3.211-2.155 5.408 0.395 2.272 1.76 3.829 3.989 4.459 1.76 0.501 3.445 0.203 4.917-0.949 0.768-0.597 1.227-1.408 1.451-2.357 0.011-0.043 0.021-0.085 0.021-0.128 0-0.021 0-0.043-0.011-0.085-1.653 0-3.296 0-4.96 0 0-1.195 0-2.368 0-3.563 2.88 0 5.749 0 8.629 0 0.117 0.757 0.171 1.493 0.149 2.24z"></path>
</svg>
