<!-- Generated by IcoMoon.io -->
<svg version="1.1" xmlns="http://www.w3.org/2000/svg" width="36" height="32" viewBox="0 0 36 32">
<title>heart-full</title>
<path fill="#fff" d="M17.893 4.074c0.208-0.248 0.412-0.511 0.635-0.759 1.492-1.685 3.352-2.732 5.558-3.133 4.734-0.857 9.333 1.754 11.029 6.237 1.371 3.625 0.5 7.757-2.221 10.493-3.596 3.614-7.196 7.221-10.792 10.836-1.357 1.36-2.71 2.721-4.067 4.085-0.047 0.047-0.080 0.106-0.128 0.168-0.069-0.062-0.109-0.098-0.146-0.135-4.807-4.822-9.607-9.647-14.417-14.468-0.839-0.843-1.608-1.732-2.174-2.786-2.991-5.58-0.004-12.604 6.113-14.231 3.578-0.952 6.769-0.098 9.483 2.433 0.405 0.379 0.748 0.832 1.127 1.262z"></path>
</svg>
