<!-- Generated by IcoMoon.io -->
<svg version="1.1" xmlns="http://www.w3.org/2000/svg" width="36" height="32" viewBox="0 0 36 32">
<title>heart</title>
<path fill="#fff" d="M17.893 4.074c0.208-0.248 0.412-0.511 0.635-0.759 1.492-1.685 3.352-2.732 5.558-3.133 4.734-0.857 9.333 1.754 11.029 6.237 1.371 3.625 0.5 7.757-2.221 10.493-3.596 3.614-7.196 7.221-10.792 10.836-1.357 1.36-2.71 2.721-4.067 4.085-0.047 0.047-0.080 0.106-0.128 0.168-0.069-0.062-0.109-0.098-0.146-0.135-4.807-4.822-9.607-9.647-14.417-14.468-0.839-0.843-1.608-1.732-2.174-2.786-2.991-5.58-0.004-12.604 6.113-14.231 3.578-0.952 6.769-0.098 9.483 2.433 0.405 0.379 0.748 0.832 1.127 1.262zM17.853 7.925c-0.084-0.098-0.168-0.201-0.263-0.295-0.824-0.824-1.674-1.623-2.473-2.473-1.24-1.317-2.739-2.112-4.533-2.276-2.181-0.201-4.074 0.481-5.646 2.010-2.236 2.177-2.743 5.7-1.24 8.436 0.434 0.788 1.028 1.437 1.656 2.064 4.136 4.15 8.268 8.301 12.404 12.455 0.040 0.040 0.088 0.080 0.146 0.135 0.044-0.055 0.077-0.102 0.113-0.142 3.355-3.366 6.711-6.733 10.062-10.103 0.85-0.853 1.667-1.732 2.538-2.56 1.328-1.258 2.115-2.779 2.276-4.592 0.186-2.148-0.474-4.026-1.966-5.595-2.272-2.389-6.003-2.834-8.79-1.076-0.653 0.412-1.196 0.948-1.74 1.488-0.835 0.828-1.67 1.656-2.546 2.524z"></path>
</svg>
