<!-- Generated by IcoMoon.io -->
<svg version="1.1" xmlns="http://www.w3.org/2000/svg" width="34" height="32" viewBox="0 0 34 32">
<title>house</title>
<path fill="#fff" d="M33.79 14.463l-5.21-5.21v-6.014c0-1.089-0.881-1.97-1.97-1.97s-1.97 0.881-1.97 1.97v2.074l-3.878-3.878c-1.915-1.915-5.251-1.915-7.166 0l-13.021 13.028c-0.77 0.77-0.77 2.019 0 2.789s2.019 0.77 2.789 0l13.021-13.028c0.423-0.423 1.172-0.423 1.596 0l13.021 13.021c0.388 0.388 0.888 0.576 1.394 0.576s1.006-0.194 1.394-0.576c0.77-0.77 0.77-2.012 0-2.782z"></path>
<path fill="#fff" d="M17.869 7.964c-0.382-0.382-0.992-0.382-1.367 0l-11.46 11.453c-0.18 0.18-0.284 0.43-0.284 0.687v8.352c0 1.963 1.589 3.552 3.552 3.552h5.674v-8.789h6.403v8.782h5.674c1.963 0 3.552-1.589 3.552-3.552v-8.352c0-0.257-0.104-0.506-0.284-0.687l-11.46-11.446z"></path>
</svg>
