<!-- Generated by IcoMoon.io -->
<svg version="1.1" xmlns="http://www.w3.org/2000/svg" width="32" height="32" viewBox="0 0 32 32">
<title>loopa</title>
<path fill="#fff" d="M20.886 22.938c-0.374-0.374-0.722-0.728-1.089-1.089-3.363 2.489-7.086 3.255-11.133 2.065-2.767-0.817-4.978-2.476-6.58-4.87-3.426-5.117-2.59-12.026 2.248-16.142 4.446-3.774 11.013-3.939 15.693-0.082 1.653 1.362 2.862 3.052 3.616 5.066 0.754 2.008 0.988 4.066 0.659 6.187-0.329 2.115-1.159 4.015-2.451 5.681 0.374 0.367 0.728 0.722 1.121 1.115 0.481-0.222 1.064-0.336 1.634-0.114 0.38 0.146 0.766 0.374 1.058 0.659 1.875 1.843 3.73 3.705 5.579 5.567 1.007 1.013 1.001 2.356-0.006 3.375-0.38 0.38-0.747 0.779-1.159 1.121-0.849 0.716-2.020 0.697-2.875-0.013-0.114-0.095-0.222-0.196-0.323-0.298-1.799-1.799-3.591-3.603-5.402-5.389-0.83-0.83-1.058-1.761-0.589-2.837zM22.209 12.222c-0.038-5.554-4.458-9.987-9.993-9.968-5.643 0.013-9.981 4.528-9.962 9.993 0.013 5.548 4.465 9.949 9.968 9.955 5.497 0.013 10.012-4.496 9.987-9.981z"></path>
</svg>
