<!-- Generated by IcoMoon.io -->
<svg version="1.1" xmlns="http://www.w3.org/2000/svg" width="27" height="32" viewBox="0 0 27 32">
<title>notifications</title>
<path fill="#fff" d="M18.357 27.429c-0.5 3-2.257 4.643-4.8 4.571-2.386-0.071-4.143-1.829-4.443-4.571-0.243 0-0.486 0-0.729 0-2.286 0-4.571 0-6.857 0.014-0.643 0-1.2-0.1-1.443-0.786s0.143-1.114 0.657-1.5c0.771-0.557 1.529-1.143 2.286-1.7 1.057-0.771 1.571-1.8 1.557-3.114-0.014-2.186-0.043-4.386 0-6.571 0.071-3.757 1.814-6.529 5.143-8.257 0.414-0.214 0.586-0.429 0.571-0.9-0.014-0.686-0.029-1.4 0.129-2.057 0.386-1.643 2-2.714 3.657-2.543 1.686 0.186 3.114 1.629 3.029 3.329-0.071 1.329 0.329 2.029 1.514 2.743 2.786 1.671 4.157 4.314 4.214 7.571 0.043 2.243 0.029 4.471 0 6.714-0.014 1.286 0.486 2.3 1.514 3.071 0.829 0.614 1.629 1.229 2.457 1.843 0.471 0.343 0.729 0.771 0.557 1.343-0.186 0.6-0.643 0.829-1.271 0.829-2.329-0.014-4.671 0-7 0-0.243-0.029-0.5-0.029-0.743-0.029zM22.786 25.114c-1.786-1.5-2.3-3.329-2.229-5.443 0.071-2.071 0.043-4.143 0-6.214-0.071-3.429-2.886-6.343-6.314-6.586-3.514-0.243-6.771 2.171-7.214 5.614-0.257 1.986-0.114 4.029-0.157 6.057-0.014 0.929 0.043 1.857-0.057 2.786-0.157 1.486-0.914 2.714-2.129 3.786 6.071 0 12 0 18.1 0zM11.471 27.457c-0.086 1.257 1.129 2.371 2.414 2.271 1.2-0.1 2.129-1.114 2.029-2.271-1.457 0-2.929 0-4.443 0zM14.857 4.571c-0.071-0.786 0.271-1.629-0.571-2.086-0.314-0.171-0.871-0.157-1.171 0.014-0.814 0.471-0.514 1.314-0.514 2.071 0.743 0 1.457 0 2.257 0z"></path>
</svg>
