<!-- Generated by IcoMoon.io -->
<svg version="1.1" xmlns="http://www.w3.org/2000/svg" width="33" height="32" viewBox="0 0 33 32">
<title>party</title>
<path fill="#fff" d="M8.208 15.464c0.141 0.080 0.476 0.188 0.697 0.402 2.419 2.392 4.824 4.804 7.223 7.216 0.663 0.663 0.462 1.608-0.415 2.037-2.432 1.186-4.878 2.358-7.31 3.538-2.198 1.065-4.395 2.131-6.593 3.183-0.791 0.382-1.635 0.040-1.796-0.764-0.060-0.302 0.013-0.677 0.147-0.958 1.132-2.399 2.298-4.784 3.451-7.169 1.079-2.224 2.157-4.456 3.229-6.68 0.248-0.496 0.616-0.791 1.367-0.804zM8.905 26.144c0.127-0.054 0.221-0.087 0.308-0.127 0.704-0.342 1.4-0.69 2.111-1.018 0.214-0.101 0.295-0.221 0.288-0.456-0.013-0.938 0.007-1.876-0.013-2.814-0.007-0.174-0.094-0.389-0.221-0.516-0.724-0.757-1.474-1.494-2.211-2.238-0.067-0.067-0.141-0.127-0.261-0.228 0 2.492 0 4.918 0 7.397zM2.968 28.951c0.020 0.020 0.040 0.040 0.060 0.060 1.012-0.489 2.023-0.972 3.028-1.474 0.080-0.040 0.127-0.221 0.127-0.335 0.007-1.481 0.007-2.968 0.007-4.449 0-0.080-0.020-0.161-0.034-0.235-0.020 0-0.040-0.007-0.067-0.007-1.045 2.137-2.084 4.288-3.122 6.439z"></path>
<path fill="#fff" d="M25.836 6.874c-0.147 0.221-0.261 0.476-0.449 0.663-2.58 2.626-5.173 5.246-7.759 7.866-0.958 0.972-1.903 1.95-2.881 2.894-0.181 0.174-0.482 0.322-0.73 0.322-0.623 0.013-0.985-0.697-0.663-1.233 0.067-0.114 0.161-0.214 0.255-0.308 3.518-3.564 7.042-7.129 10.559-10.7 0.268-0.275 0.549-0.496 0.972-0.375 0.389 0.114 0.623 0.422 0.697 0.871z"></path>
<path fill="#fff" d="M21.655 19.457c-1.755 0-3.162 0.523-4.476 1.34-0.168 0.107-0.342 0.221-0.529 0.281-0.395 0.121-0.811-0.087-0.978-0.449-0.174-0.375-0.074-0.797 0.281-1.039 1.394-0.925 2.894-1.575 4.576-1.755 2.533-0.268 4.75 0.503 6.72 2.064 0.154 0.127 0.308 0.261 0.449 0.402 0.382 0.382 0.409 0.871 0.080 1.219-0.322 0.348-0.838 0.348-1.226-0.007-0.771-0.697-1.628-1.24-2.6-1.608-0.811-0.295-1.635-0.462-2.298-0.449z"></path>
<path fill="#fff" d="M14.553 9.36c-0.027 1.91-0.516 3.491-1.32 4.985-0.268 0.502-0.569 0.985-0.878 1.461-0.302 0.469-0.797 0.603-1.206 0.342-0.429-0.275-0.516-0.777-0.194-1.26 0.824-1.233 1.494-2.533 1.769-4.007 0.342-1.836 0.047-3.524-1.159-5.005-0.322-0.395-0.275-0.891 0.087-1.193 0.368-0.301 0.851-0.268 1.193 0.127 0.851 0.972 1.353 2.117 1.568 3.384 0.087 0.456 0.114 0.911 0.141 1.166z"></path>
<path fill="#fff" d="M11.638 2.64c-0.147 0.147-0.268 0.335-0.442 0.422-0.255 0.127-0.543 0.201-0.824 0.261-0.348 0.074-0.536 0.288-0.616 0.623-0.067 0.261-0.141 0.516-0.221 0.771s-0.241 0.429-0.529 0.429c-0.288 0-0.442-0.174-0.523-0.429-0.087-0.288-0.181-0.576-0.255-0.864-0.067-0.268-0.241-0.422-0.496-0.496-0.275-0.080-0.556-0.161-0.838-0.241-0.275-0.080-0.462-0.248-0.462-0.543s0.194-0.462 0.462-0.543c0.281-0.080 0.556-0.161 0.838-0.241 0.255-0.074 0.422-0.234 0.489-0.496 0.080-0.301 0.174-0.596 0.268-0.898 0.080-0.248 0.241-0.395 0.516-0.395s0.435 0.154 0.516 0.395c0.087 0.261 0.161 0.536 0.228 0.804 0.087 0.335 0.275 0.543 0.623 0.616 0.268 0.060 0.536 0.154 0.797 0.234 0.248 0.080 0.395 0.248 0.469 0.59z"></path>
<path fill="#fff" d="M32.717 23.631c-0.020 0.409-0.167 0.583-0.429 0.663-0.288 0.087-0.576 0.174-0.864 0.255-0.275 0.074-0.442 0.241-0.516 0.516-0.080 0.288-0.168 0.576-0.255 0.864-0.074 0.255-0.235 0.402-0.503 0.409-0.288 0.007-0.456-0.154-0.543-0.409-0.094-0.288-0.168-0.576-0.255-0.864-0.074-0.268-0.241-0.442-0.523-0.509-0.261-0.067-0.509-0.154-0.771-0.228-0.281-0.080-0.496-0.208-0.503-0.536-0.007-0.348 0.221-0.482 0.509-0.563 0.248-0.074 0.489-0.161 0.737-0.214 0.308-0.067 0.476-0.261 0.556-0.556 0.067-0.255 0.147-0.516 0.221-0.771 0.074-0.275 0.235-0.469 0.529-0.476 0.315-0.007 0.476 0.201 0.556 0.482 0.074 0.268 0.154 0.536 0.228 0.804 0.074 0.255 0.228 0.429 0.489 0.496 0.302 0.087 0.61 0.147 0.891 0.275 0.208 0.080 0.342 0.275 0.442 0.362z"></path>
<path fill="#fff" d="M30.714 3.685c-0.101 0.094-0.241 0.288-0.422 0.375-0.281 0.134-0.59 0.194-0.891 0.275-0.261 0.074-0.422 0.241-0.496 0.496-0.087 0.301-0.174 0.596-0.268 0.898-0.074 0.255-0.255 0.402-0.516 0.402s-0.436-0.154-0.516-0.402c-0.080-0.255-0.168-0.509-0.228-0.771-0.080-0.355-0.268-0.569-0.63-0.65-0.261-0.060-0.516-0.147-0.771-0.228-0.261-0.080-0.422-0.235-0.422-0.529s0.174-0.449 0.429-0.529c0.288-0.094 0.576-0.174 0.864-0.255 0.261-0.074 0.422-0.235 0.496-0.496 0.080-0.281 0.154-0.556 0.241-0.838 0.080-0.268 0.235-0.456 0.543-0.456s0.456 0.194 0.536 0.462c0.080 0.268 0.161 0.536 0.235 0.804 0.074 0.288 0.255 0.456 0.536 0.536 0.281 0.074 0.556 0.154 0.838 0.241 0.261 0.087 0.415 0.255 0.442 0.663z"></path>
<path fill="#fff" d="M19.933 15.652c-0.007-0.302 0.147-0.516 0.415-0.63 0.905-0.382 1.802-0.764 2.714-1.132 0.402-0.161 0.777 0.007 0.918 0.362 0.134 0.348-0.020 0.704-0.409 0.871-0.891 0.382-1.782 0.757-2.68 1.119-0.489 0.201-0.951-0.101-0.958-0.59z"></path>
<path fill="#fff" d="M15.772 11.075c0.020-0.060 0.047-0.208 0.101-0.335 0.342-0.831 0.697-1.662 1.045-2.492 0.194-0.462 0.536-0.63 0.918-0.476 0.382 0.161 0.509 0.529 0.322 0.985-0.355 0.858-0.71 1.709-1.065 2.559-0.127 0.302-0.335 0.502-0.683 0.489-0.369-0.013-0.63-0.288-0.637-0.73z"></path>
<path fill="#fff" d="M8.543 10.647c0.322-0.007 0.529 0.161 0.637 0.442 0.228 0.616 0.456 1.233 0.663 1.856 0.134 0.395-0.034 0.764-0.375 0.891-0.362 0.134-0.737-0.047-0.884-0.442-0.228-0.616-0.449-1.233-0.663-1.856-0.141-0.469 0.161-0.884 0.623-0.891z"></path>
<path fill="#fff" d="M18.64 21.822c0.054 0.013 0.168 0.027 0.268 0.067 0.576 0.201 1.152 0.409 1.729 0.623 0.422 0.154 0.61 0.523 0.469 0.898-0.127 0.335-0.503 0.496-0.891 0.362-0.63-0.221-1.26-0.436-1.883-0.677-0.342-0.134-0.476-0.449-0.395-0.791 0.067-0.288 0.335-0.482 0.704-0.482z"></path>
<path fill="#fff" d="M29.829 12.060c0.013 0.362-0.328 0.697-0.71 0.697-0.355 0-0.663-0.302-0.67-0.657-0.007-0.382 0.315-0.697 0.704-0.704 0.348 0 0.663 0.308 0.677 0.663z"></path>
<path fill="#fff" d="M23.658 24.168c-0.007 0.348-0.315 0.663-0.67 0.663-0.369 0-0.71-0.348-0.697-0.717 0.013-0.355 0.335-0.657 0.683-0.65 0.362 0.013 0.69 0.348 0.683 0.704z"></path>
<path fill="#fff" d="M25.869 12.784c0.369 0 0.663 0.288 0.663 0.65 0 0.375-0.328 0.683-0.717 0.683-0.369 0-0.65-0.288-0.657-0.657 0-0.382 0.302-0.677 0.71-0.677z"></path>
<path fill="#fff" d="M20.663 2.593c-0.007 0.395-0.315 0.704-0.704 0.69-0.369-0.013-0.643-0.301-0.637-0.67 0.007-0.402 0.315-0.704 0.704-0.69 0.369 0.007 0.643 0.295 0.637 0.67z"></path>
<path fill="#fff" d="M18.64 5.213c0.369 0 0.663 0.288 0.663 0.65 0 0.382-0.322 0.71-0.697 0.704-0.369 0-0.663-0.295-0.663-0.657 0-0.382 0.315-0.697 0.697-0.697z"></path>
<path fill="#fff" d="M25.065 27.049c-0.362 0-0.677-0.322-0.677-0.69 0-0.362 0.295-0.663 0.657-0.67 0.375-0.007 0.704 0.328 0.697 0.71-0.013 0.355-0.322 0.65-0.677 0.65z"></path>
<path fill="#fff" d="M8.241 8.972c-0.007 0.355-0.322 0.657-0.677 0.657-0.369-0.007-0.697-0.362-0.677-0.73 0.020-0.355 0.342-0.65 0.69-0.637 0.362 0.013 0.677 0.348 0.663 0.71z"></path>
<path fill="#fff" d="M4.905 6.807c0-0.375 0.275-0.65 0.65-0.657 0.382 0 0.69 0.288 0.697 0.657 0.007 0.375-0.288 0.677-0.67 0.677-0.375 0-0.677-0.301-0.677-0.677z"></path>
</svg>
