<!-- Generated by IcoMoon.io -->
<svg version="1.1" xmlns="http://www.w3.org/2000/svg" width="55" height="32" viewBox="0 0 55 32">
<title>reviews</title>
<path fill="#fff" d="M31.931 18.514c-2.358 2.323-4.715 4.611-7.038 6.934-1.525 1.525-1.699 3.155-0.485 4.403 1.213 1.213 2.878 1.075 4.403-0.451 3.883-3.883 7.766-7.766 11.649-11.649 1.699-1.733 1.733-3.086 0.069-4.784-3.952-3.918-7.87-7.835-11.788-11.753-1.456-1.456-3.086-1.595-4.264-0.451-1.248 1.213-1.144 2.878 0.381 4.403 2.358 2.358 4.715 4.715 7.454 7.419-1.109 0-1.768 0-2.462 0-5.408 0.104-10.886-0.243-16.26 0.416-7.627 0.901-13.452 8.009-13.59 15.671-0.035 2.011 0.832 3.19 2.462 3.328 1.699 0.139 2.843-1.005 3.051-3.016 0.659-6.865 5.027-10.852 11.892-10.852 4.784 0 9.534 0 14.319 0 0.104 0.104 0.139 0.243 0.208 0.381z"></path>
<path fill="#fff" d="M48.364 15.393c-3.155 3.155-6.241 6.241-9.326 9.326-0.416 0.416-0.832 0.797-1.213 1.248-1.075 1.213-1.075 2.808-0.035 3.883s2.704 1.144 3.883 0.035c1.733-1.629 3.363-3.328 5.027-4.992 2.392-2.392 4.819-4.784 7.211-7.211 1.595-1.629 1.595-3.016 0-4.646-3.952-3.987-7.905-7.939-11.857-11.857-1.421-1.421-3.12-1.491-4.264-0.312s-1.040 2.843 0.381 4.264c3.086 3.12 6.206 6.206 9.291 9.326 0.312 0.208 0.555 0.52 0.901 0.936z"></path>
</svg>
