<!-- Generated by IcoMoon.io -->
<svg version="1.1" xmlns="http://www.w3.org/2000/svg" width="60" height="32" viewBox="0 0 60 32">
<title>arrow</title>
<path d="M48.227 19.549c-0.179 0-0.29 0-0.41 0-14.663 0-29.319 0-43.982 0-1.117 0-2.108-0.305-2.86-1.147-0.983-1.087-1.244-2.361-0.693-3.731 0.551-1.363 1.609-2.093 3.083-2.212 0.156-0.015 0.313-0.007 0.477-0.007 14.648 0 29.304 0 43.953 0 0.119 0 0.238 0 0.439 0-0.112-0.119-0.179-0.194-0.246-0.268-2.003-2.003-3.999-4.007-6.002-6.002-0.827-0.819-1.244-1.787-1.147-2.964 0.149-1.832 1.743-3.262 3.582-3.217 0.953 0.022 1.772 0.365 2.45 1.043 4.141 4.141 8.289 8.289 12.437 12.437 1.407 1.415 1.393 3.604-0.030 5.057-0.67 0.685-1.355 1.355-2.033 2.033-3.411 3.411-6.822 6.814-10.225 10.232-0.648 0.648-1.393 1.057-2.316 1.169-1.825 0.216-3.612-1.162-3.858-2.986-0.164-1.199 0.186-2.227 1.035-3.076 2.033-2.041 4.066-4.066 6.099-6.107 0.067-0.060 0.134-0.134 0.246-0.253z"></path>
</svg>
