<!-- Generated by IcoMoon.io -->
<svg version="1.1" xmlns="http://www.w3.org/2000/svg" width="17" height="32" viewBox="0 0 17 32">
<title>attach</title>
<path d="M8.059 32c-0.474-0.079-0.948-0.132-1.396-0.263-3.45-0.948-5.61-3.16-6.453-6.611-0.158-0.632-0.211-1.291-0.211-1.949 0-5.768 0-11.509 0-17.277 0-1.396 0.5-2.634 1.396-3.687 1.449-1.686 3.319-2.449 5.505-2.133 2.37 0.342 4.003 1.686 4.899 3.924 0.29 0.711 0.395 1.449 0.395 2.239 0 5.136 0 10.298-0.026 15.434 0 0.895-0.132 1.817-0.316 2.713-0.316 1.633-1.765 2.344-2.844 2.502-2.291 0.29-4.267-1.422-4.267-3.714 0-4.24 0-8.481 0-12.721 0-0.553 0.184-1.001 0.685-1.291 0.448-0.263 0.922-0.263 1.37 0 0.395 0.237 0.606 0.579 0.658 1.053 0.026 0.132 0 0.263 0 0.395 0 4.135 0 8.296 0 12.431 0 0.711 0.448 1.159 1.080 1.133 0.448-0.026 0.843-0.342 0.922-0.79 0.026-0.132 0.026-0.263 0.026-0.395 0-5.61 0-11.22 0-16.803 0-1.659-1.053-3.002-2.555-3.398-2.081-0.527-4.109 0.974-4.214 3.108 0 0.105 0 0.184 0 0.29 0 5.663 0 11.325 0 16.988 0 2.318 1.027 4.109 3.029 5.294 2.081 1.238 4.925 0.974 6.769-0.579 1.291-1.080 1.923-2.476 1.975-4.109 0.079-2.133 0.105-4.24 0.132-6.374 0-0.132 0-0.237 0-0.369 0.026-0.737 0.5-1.317 1.133-1.37 0.658-0.079 1.37 0.421 1.554 1.106 0.026 0.132 0.053 0.263 0.053 0.395 0 2.133 0.053 4.293 0 6.426-0.105 4.003-3.108 7.48-7.032 8.217-0.342 0.053-0.685 0.105-1.001 0.158-0.421 0.026-0.843 0.026-1.264 0.026z"></path>
</svg>
