<!-- Generated by IcoMoon.io -->
<svg version="1.1" xmlns="http://www.w3.org/2000/svg" width="34" height="32" viewBox="0 0 34 32">
<title>bonus</title>
<path d="M2.986 15.818c-1.322-0.729-2.507-1.436-2.872-2.963-0.387-1.573 0.274-3.328 1.618-3.875 0.296-0.114 0.729 0.091 1.094 0.137-0.046 0.342 0 0.798-0.182 1.003-1.595 1.755-1.413 2.963 0.479 3.966 1.117-1.322 2.028-2.781 3.305-3.852 3.601-3.031 7.932-3.738 12.49-3.168 0.934 0.114 1.55 0.182 2.12-0.798 0.957-1.595 2.575-2.439 4.33-2.94 1.026-0.296 1.459 0.205 1.162 1.208-0.319 1.14-0.638 2.256-0.957 3.396-0.16 0.547-0.068 0.889 0.501 1.185 2.188 1.094 3.578 2.849 4.262 5.219 0.091 0.296 0.615 0.615 0.957 0.638 1.983 0.16 2.576 0.752 2.576 2.781 0 0.843 0 1.664 0 2.507-0.023 1.481-0.752 2.302-2.211 2.279-0.934-0.023-1.345 0.365-1.869 1.071-0.843 1.185-1.915 2.211-2.986 3.214-0.433 0.41-0.707 0.615-0.456 1.276 0.593 1.595 0.182 2.393-1.368 3.031-0.387 0.16-0.775 0.296-1.162 0.433-2.279 0.843-2.781 0.593-3.829-1.641-0.137-0.273-0.593-0.547-0.912-0.57-1.732-0.068-3.464-0.023-5.219-0.114-0.638-0.023-0.934 0.091-1.162 0.707-0.775 2.12-1.573 2.462-3.738 1.641-0.319-0.114-0.638-0.228-0.957-0.342-1.892-0.775-2.256-1.55-1.481-3.419 0.365-0.889 0.296-1.459-0.479-2.12-2.986-2.621-3.966-5.926-3.054-9.892zM24.479 5.47c-0.091-0.091-0.205-0.182-0.296-0.274-0.798 0.912-1.732 1.755-2.393 2.758-0.524 0.798-0.957 1.026-1.937 0.843-3.783-0.729-7.407-0.342-10.94 1.481-5.197 2.667-6.746 10.735-1.436 14.678 1.048 0.775 1.14 1.709 0.661 2.803-0.843 2.006-0.524 1.664 1.026 2.279 1.573 0.615 1.573 0.615 2.234-1.003 0.547-1.39 0.912-1.504 2.439-1.368 1.755 0.137 3.556 0.137 5.311 0.091 1.048-0.046 1.755 0.251 2.142 1.254 0.638 1.664 0.661 1.664 2.325 1.003 0.114-0.046 0.205-0.091 0.319-0.114 0.98-0.228 1.322-0.707 0.798-1.709-0.479-0.957-0.182-1.778 0.752-2.325 1.481-0.866 2.553-2.097 3.373-3.601 0.296-0.524 0.934-1.026 1.527-1.162 1.892-0.433 1.892-0.365 1.892-2.302 0-0.342-0.023-0.684 0-1.026 0.114-0.889-0.205-1.208-1.14-1.185-1.573 0.023-1.892-0.273-2.302-1.755-0.593-2.142-1.846-3.715-3.943-4.536-0.775-0.296-1.071-0.798-0.957-1.573 0.182-1.117 0.387-2.188 0.547-3.259z"></path>
<path d="M8.433 7.385c-0.387 0.16-0.798 0.319-1.185 0.479-1.071-1.892-0.775-4.171 0.707-5.949 1.322-1.595 3.943-2.325 5.903-1.641 2.302 0.798 3.761 2.758 3.806 5.197-0.456 0-0.934 0-1.413 0-0.889-3.145-2.598-4.399-5.128-3.783-2.279 0.547-3.282 2.598-2.689 5.698z"></path>
<path d="M23.932 16.479c0.023-0.775 0.752-1.481 1.504-1.39 0.82 0.091 1.299 0.593 1.368 1.413 0.046 0.729-0.729 1.481-1.459 1.459-0.729 0-1.436-0.729-1.413-1.481z"></path>
</svg>
