<!-- Generated by IcoMoon.io -->
<svg version="1.1" xmlns="http://www.w3.org/2000/svg" width="34" height="32" viewBox="0 0 34 32">
<title>chat-online</title>
<path d="M34.305 15.745c-0.121 0.536-0.214 1.085-0.348 1.621-1.26 4.784-4.422 7.893-8.804 9.889-3.685 1.675-7.544 2.050-11.511 1.353-0.281-0.054-0.657 0.040-0.898 0.201-2.117 1.447-4.382 2.559-6.928 3.069-0.241 0.054-0.482 0.094-0.724 0.107-0.764 0.067-1.34-0.268-1.648-0.898-0.295-0.616-0.121-1.273 0.335-1.849 0.764-0.951 1.474-1.943 2.198-2.935 0.295-0.402 0.228-0.697-0.228-1.032-3.095-2.358-5.106-5.374-5.642-9.286-0.013-0.080-0.067-0.161-0.107-0.241 0-0.844 0-1.702 0-2.546 0.040-0.080 0.094-0.161 0.094-0.241 0.442-3.363 2.050-6.097 4.529-8.348 5.307-4.824 13.896-6.017 20.704-2.841 4.101 1.916 7.129 4.851 8.482 9.286 0.214 0.697 0.335 1.42 0.496 2.131 0 0.858 0 1.715 0 2.559zM6.794 29.414c1.769-0.536 3.484-1.407 4.985-2.613 0.603-0.482 1.126-0.563 1.863-0.415 4.891 0.992 9.474 0.188 13.548-2.774 6.553-4.757 6.647-13.213 0.214-18.131-2.961-2.265-6.352-3.31-10.050-3.323-4.663-0.013-8.804 1.38-12.074 4.824-2.653 2.787-3.725 6.111-2.827 9.916 0.75 3.216 2.747 5.575 5.508 7.276 0.67 0.415 0.817 0.844 0.536 1.501-0.563 1.26-1.139 2.506-1.702 3.739z"></path>
</svg>
