<!-- Generated by IcoMoon.io -->
<svg version="1.1" xmlns="http://www.w3.org/2000/svg" width="34" height="32" viewBox="0 0 34 32">
<title>chat</title>
<path d="M10.449 25.389c0.463-0.345 0.913-0.686 1.366-1.024 0.949-0.712 1.897-1.421 2.846-2.131 0.053-0.039 0.125-0.049 0.19-0.066 0.026-0.007 0.056 0 0.085 0 2.032-0.003 4.061 0 6.093-0.010 2.8-0.016 5.308-2.065 5.906-4.799 0.102-0.463 0.151-0.929 0.151-1.405 0-2.797 0-5.597 0-8.394 0-0.053 0-0.105 0-0.171 0.053 0 0.095 0 0.141 0 1.169 0 2.337 0 3.509 0 1.783 0.003 3.25 1.162 3.644 2.895 0.062 0.272 0.089 0.561 0.089 0.84 0.007 4.074 0.003 8.148 0.003 12.222 0 1.894-1.326 3.427-3.201 3.7-0.187 0.026-0.378 0.033-0.565 0.033-1.149 0.003-2.298 0-3.447 0-0.049 0-0.098 0-0.167 0 0 0.821 0 1.635 0 2.452 0 0.811 0 1.625 0 2.465-0.053-0.036-0.089-0.059-0.121-0.085-2.117-1.586-4.235-3.174-6.352-4.757-0.059-0.046-0.148-0.072-0.223-0.072-2.282-0.003-4.563 0.007-6.844-0.007-1.297-0.007-2.318-0.571-3.066-1.628-0.010-0.013-0.020-0.030-0.036-0.059z"></path>
<path d="M7.366 24.614c0-1.651 0-3.276 0-4.918-0.053 0-0.102 0-0.148 0-1.156 0-2.314 0-3.47 0-1.779 0-3.26-1.172-3.654-2.905-0.059-0.263-0.085-0.535-0.085-0.804-0.010-4.094-0.010-8.184-0.007-12.274 0-1.871 1.362-3.427 3.214-3.68 0.174-0.023 0.351-0.033 0.525-0.033 5.712 0 11.424 0 17.136 0 1.832 0 3.335 1.241 3.68 3.040 0.043 0.223 0.059 0.456 0.059 0.686 0.003 4.084 0.003 8.164 0.003 12.248 0 1.881-1.359 3.437-3.214 3.693-0.181 0.026-0.368 0.030-0.552 0.033-2.262 0.003-4.52 0-6.782 0.003-0.075 0-0.161 0.030-0.22 0.072-2.124 1.586-4.245 3.171-6.365 4.76-0.036 0.023-0.069 0.043-0.121 0.079zM9.828 19.69c0.053-0.036 0.089-0.059 0.118-0.082 1.014-0.758 2.029-1.517 3.043-2.282 0.092-0.069 0.181-0.095 0.292-0.095 2.531 0.003 5.062 0.003 7.596 0 0.765 0 1.28-0.519 1.28-1.284 0-4.071 0-8.141 0-12.212 0-0.758-0.519-1.277-1.277-1.277-5.715 0-11.43 0-17.149 0-0.748 0.003-1.267 0.522-1.27 1.27 0 4.077 0 8.158 0 12.235 0 0.115 0.010 0.23 0.039 0.341 0.141 0.571 0.617 0.929 1.234 0.929 1.983 0 3.962 0 5.945 0 0.046 0 0.095 0 0.148 0 0 0.824 0 1.628 0 2.455z"></path>
</svg>
