<!-- Generated by IcoMoon.io -->
<svg version="1.1" xmlns="http://www.w3.org/2000/svg" width="56" height="32" viewBox="0 0 56 32">
<title>chevron-down</title>
<path d="M27.989 21.279c-2.324-2.237-4.611-4.423-6.885-6.61-4.873-4.673-9.734-9.346-14.607-14.020-0.925-0.887-1.599-0.875-2.524 0.025-1.112 1.1-2.224 2.187-3.349 3.286-0.837 0.825-0.837 1.537 0 2.349 8.709 8.359 17.418 16.718 26.127 25.078 0.887 0.85 1.624 0.825 2.587-0.112 7.372-7.085 14.744-14.157 22.116-21.242 1.275-1.225 2.562-2.449 3.824-3.674 0.9-0.875 0.9-1.574 0.013-2.449-1.125-1.112-2.262-2.212-3.399-3.311-0.837-0.812-1.537-0.8-2.387 0.012-6.997 6.722-13.995 13.432-20.992 20.155-0.15 0.15-0.312 0.312-0.525 0.512z"></path>
</svg>
