<!-- Generated by IcoMoon.io -->
<svg version="1.1" xmlns="http://www.w3.org/2000/svg" width="18" height="32" viewBox="0 0 18 32">
<title>chevron-left</title>
<path d="M6.13 16.004c1.279 1.329 2.529 2.636 3.779 3.937 2.672 2.779 5.344 5.566 8.009 8.345 0.507 0.529 0.5 0.915-0.014 1.443-0.622 0.636-1.243 1.279-1.872 1.915-0.472 0.479-0.886 0.479-1.343 0-4.78-4.98-9.559-9.959-14.339-14.939-0.486-0.507-0.472-0.929 0.064-1.479 4.051-4.215 8.095-8.43 12.146-12.646 0.7-0.729 1.4-1.465 2.1-2.186 0.5-0.514 0.9-0.514 1.4-0.007 0.636 0.643 1.265 1.293 1.893 1.943 0.464 0.479 0.457 0.879-0.007 1.365-3.844 4.001-7.68 8.002-11.524 12.003-0.086 0.086-0.171 0.179-0.293 0.307z"></path>
</svg>
