<!-- Generated by IcoMoon.io -->
<svg version="1.1" xmlns="http://www.w3.org/2000/svg" width="25" height="32" viewBox="0 0 25 32">
<title>doc</title>
<path d="M4.425 0c3.517 0 7.042 0 10.558 0 0.133 0.042 0.275 0.083 0.408 0.117 0.833 0.25 1.492 0.783 2.092 1.375 1.75 1.708 3.483 3.442 5.208 5.167 0.342 0.342 0.65 0.708 0.95 1.075 0.517 0.642 0.95 1.333 0.95 2.192 0 5.725 0.017 11.45-0.008 17.175-0.008 2.15-1.333 3.933-3.333 4.625-0.35 0.117-0.717 0.183-1.083 0.275-5.25 0-10.5 0-15.75 0-0.358-0.092-0.733-0.158-1.083-0.275-2.042-0.708-3.325-2.542-3.333-4.775-0.008-3.333 0-6.667 0-9.992 0-3.967 0-7.933 0-11.9 0-2.233 1.292-4.075 3.342-4.775 0.358-0.125 0.725-0.192 1.083-0.283zM2.442 16c0 3.592 0 7.183 0 10.783 0 0.3 0.017 0.608 0.092 0.892 0.317 1.183 1.242 1.875 2.517 1.875 4.833 0.008 9.667 0.008 14.5 0 0.592 0 1.15-0.15 1.633-0.525 0.725-0.567 0.983-1.333 0.975-2.225 0-5.142 0-10.292 0-15.433 0-0.125 0-0.25-0.017-0.375-0.083-0.617-0.333-0.908-0.933-1.042-0.233-0.050-0.475-0.083-0.708-0.092-0.742-0.017-1.475-0.025-2.217-0.033s-1.483 0.008-2.217-0.008c-0.633-0.008-1.083-0.333-1.225-0.867-0.050-0.2-0.058-0.408-0.058-0.617-0.008-1.475-0.008-2.958-0.033-4.433-0.008-0.283-0.075-0.575-0.175-0.85-0.142-0.383-0.425-0.617-0.85-0.617-2.892 0-5.792-0.008-8.683 0.008-0.85 0-1.558 0.317-2.083 1.008-0.392 0.517-0.5 1.108-0.5 1.733-0.017 3.608-0.017 7.217-0.017 10.817z"></path>
<path d="M12.258 14.75c-2 0-4 0-5.992 0-0.733 0-1.267-0.458-1.317-1.1-0.050-0.725 0.45-1.275 1.217-1.325 0.058-0.008 0.125 0 0.183 0 3.975 0 7.95 0 11.925 0 0.675 0 1.092 0.267 1.308 0.808 0.25 0.642-0.142 1.408-0.808 1.567-0.192 0.042-0.392 0.058-0.583 0.058-1.983 0-3.958-0.008-5.933-0.008z"></path>
<path d="M12.333 22.167c1.975 0 3.958 0 5.933 0 0.55 0 1.017 0.158 1.267 0.683 0.408 0.85-0.15 1.7-1.142 1.758-0.042 0-0.083 0-0.125 0-3.975 0-7.95 0-11.925 0-0.667 0-1.1-0.267-1.317-0.8-0.267-0.675 0.167-1.475 0.883-1.6 0.183-0.033 0.375-0.033 0.558-0.033 1.958-0.008 3.917-0.008 5.867-0.008z"></path>
<path d="M11.117 17.25c1.6 0 3.208-0.008 4.808 0 0.933 0.008 1.492 0.817 1.175 1.667-0.175 0.467-0.642 0.758-1.25 0.758-1.35 0-2.708 0-4.058 0-1.842 0-3.683 0-5.525 0-0.733 0-1.275-0.458-1.325-1.1-0.058-0.75 0.467-1.325 1.275-1.333 1.050-0.017 2.1 0 3.15 0 0.592 0.008 1.175 0.008 1.75 0.008z"></path>
</svg>
