<!-- Generated by IcoMoon.io -->
<svg version="1.1" xmlns="http://www.w3.org/2000/svg" width="32" height="32" viewBox="0 0 32 32">
<title>edit</title>
<path d="M19.573 5.814c2.219 2.219 4.372 4.372 6.591 6.591-0.2 0.2-0.444 0.488-0.688 0.732-6.036 6.036-12.050 12.072-18.13 18.086-0.422 0.399-1.11 0.688-1.709 0.71-1.842 0.089-3.684 0.044-5.659 0.044 0-2.175-0.022-4.261 0.022-6.347 0-0.244 0.222-0.533 0.422-0.732 6.325-6.325 12.649-12.649 18.951-18.974 0.089-0.044 0.155-0.067 0.2-0.111z"></path>
<path d="M21.725 3.506c0.91-0.888 1.931-1.908 2.974-2.885 0.932-0.865 1.797-0.843 2.73 0.067 1.287 1.265 2.574 2.552 3.839 3.839 0.91 0.932 0.932 1.82 0.067 2.73-0.976 1.043-2.019 2.042-2.907 2.951-2.219-2.219-4.394-4.394-6.702-6.702z"></path>
</svg>
