<!-- Generated by IcoMoon.io -->
<svg version="1.1" xmlns="http://www.w3.org/2000/svg" width="31" height="32" viewBox="0 0 31 32">
<title>mirror</title>
<path d="M14.258 0c0.525 0.075 1.050 0.142 1.567 0.242 2.417 0.442 4.525 1.5 6.358 3.125 1.983 1.758 3.342 3.908 4.042 6.475 0.675 2.475 0.617 4.942-0.108 7.392-0.142 0.475-0.525 0.717-0.942 0.6-0.425-0.117-0.633-0.5-0.492-0.992 0.35-1.242 0.575-2.5 0.5-3.792-0.283-4.975-2.7-8.517-7.208-10.592-2.058-0.95-4.267-1.167-6.508-0.792-3.333 0.55-5.958 2.25-7.883 5.008-1.058 1.517-1.725 3.208-1.942 5.050-0.508 4.317 0.908 7.917 4.192 10.742 1.683 1.45 3.675 2.3 5.892 2.592 0.492 0.067 0.992 0.092 1.492 0.125 0.617 0.033 0.892 0.3 0.892 0.917 0.008 1.075 0 2.142 0 3.217 0 0.108 0 0.225 0 0.367 0.467 0 0.892-0.008 1.317 0 0.317 0.008 0.567 0.167 0.683 0.467 0.1 0.267 0.092 0.567-0.142 0.75-0.175 0.142-0.417 0.258-0.633 0.258-1.808 0.017-3.625 0.017-5.433 0.008-0.517 0-0.842-0.333-0.825-0.775 0.017-0.433 0.333-0.708 0.858-0.708 0.883-0.008 1.767 0 2.675 0 0-1.008 0-1.992 0-3.008-0.3-0.033-0.608-0.067-0.917-0.108-2.808-0.367-5.258-1.517-7.342-3.425-1.833-1.683-3.1-3.717-3.783-6.1-0.975-3.383-0.7-6.683 0.95-9.792 2.167-4.067 5.575-6.467 10.158-7.133 0.275-0.042 0.55-0.075 0.833-0.117 0.583 0 1.167 0 1.75 0z"></path>
<path d="M21.758 32c-0.575-0.108-1.15-0.175-1.708-0.325-0.425-0.108-0.842-0.3-1.242-0.492-0.208-0.1-0.358-0.133-0.558 0.033-0.25 0.208-0.558 0.233-0.85 0.067-0.25-0.15-0.408-0.392-0.342-0.683 0.042-0.208 0.175-0.425 0.325-0.575 0.275-0.275 0.3-0.467 0.025-0.733-0.708-0.683-1.242-1.475-1.617-2.383-0.475-1.142-0.625-2.325-0.525-3.55 0.158-1.917 0.883-3.583 2.25-4.95 0.858-0.858 1.883-1.433 3.067-1.708 0.333-0.075 0.625-0.033 0.917 0.158 1.1 0.692 1.9 1.642 2.433 2.817 0.108 0.242 0.217 0.283 0.467 0.225 1.875-0.483 3.708-0.392 5.483 0.433 0.308 0.142 0.608 0.317 0.9 0.5 0.4 0.267 0.417 0.733 0.475 1.142 0.45 2.958-0.592 5.4-2.692 7.425-1.517 1.458-3.333 2.317-5.442 2.542-0.058 0.008-0.117 0.033-0.175 0.050-0.4 0.008-0.792 0.008-1.192 0.008zM19 28.817c0.117-0.075 0.2-0.133 0.283-0.192 2.333-1.7 4.658-3.4 6.992-5.1 0.133-0.1 0.275-0.192 0.425-0.267 0.3-0.142 0.667-0.033 0.867 0.225s0.2 0.65-0.017 0.9c-0.1 0.117-0.225 0.217-0.35 0.308-1.408 1.033-2.825 2.067-4.233 3.092-1.017 0.742-2.033 1.483-3.075 2.242 0.1 0.042 0.175 0.083 0.25 0.108 1.042 0.367 2.125 0.467 3.2 0.275 2.358-0.425 4.208-1.633 5.492-3.667 0.892-1.417 1.267-2.958 0.933-4.625-0.017-0.1-0.108-0.225-0.192-0.283-0.717-0.408-1.483-0.642-2.308-0.717-3.467-0.308-6.942 2.008-7.983 5.317-0.25 0.775-0.367 1.55-0.283 2.383zM17.55 27.1c0.042-0.092 0.067-0.125 0.075-0.167 0.217-1.15 0.692-2.192 1.325-3.175 0.158-0.242 0.25-0.542 0.308-0.825 0.142-0.725 0.242-1.458 0.383-2.183 0.092-0.458 0.433-0.692 0.858-0.625 0.4 0.058 0.65 0.425 0.6 0.883-0.017 0.167-0.042 0.325-0.075 0.508 0.558-0.342 1.092-0.675 1.642-1.017-0.367-0.925-0.958-1.667-1.767-2.242-0.067-0.050-0.192-0.042-0.283-0.017-0.758 0.208-1.4 0.625-1.967 1.158-0.992 0.942-1.567 2.117-1.808 3.45-0.275 1.483-0.058 2.883 0.708 4.25z"></path>
<path d="M13.567 3.692c4.008 0.017 7.742 2.758 9 6.767 0.417 1.325 0.542 2.692 0.375 4.075-0.058 0.483-0.392 0.775-0.833 0.733-0.408-0.042-0.65-0.375-0.658-0.842-0.008-0.817 0.050-1.65-0.075-2.458-0.308-2.067-1.333-3.758-2.983-5.025-2.45-1.875-5.175-2.3-8.042-1.158-2.817 1.125-4.525 3.267-5.025 6.275-0.442 2.658 0.325 4.992 2.183 6.942 1.508 1.583 3.4 2.392 5.583 2.492 0.158 0.008 0.317 0.017 0.467 0.050 0.333 0.083 0.542 0.375 0.533 0.717s-0.217 0.667-0.558 0.683c-0.567 0.017-1.142 0-1.708-0.083-3.925-0.6-7.133-3.683-7.925-7.583-0.983-4.825 1.883-9.675 6.583-11.142 0.942-0.3 1.908-0.433 3.083-0.442z"></path>
<path d="M16.45 17.275c-0.1-0.058-0.325-0.133-0.475-0.283-2.092-2.075-4.175-4.158-6.258-6.25-0.367-0.367-0.383-0.825-0.067-1.133 0.308-0.3 0.758-0.283 1.108 0.075 2.092 2.083 4.183 4.175 6.275 6.275 0.25 0.25 0.35 0.55 0.2 0.883-0.117 0.275-0.35 0.425-0.783 0.433z"></path>
<path d="M9.508 14.583c-0.008-0.7 0.6-1.067 1.083-0.792 0.1 0.058 0.192 0.125 0.267 0.208 1.117 1.108 2.225 2.217 3.333 3.333 0.417 0.417 0.408 0.917 0 1.208-0.267 0.183-0.542 0.2-0.817 0.025-0.1-0.067-0.2-0.15-0.283-0.242-1.075-1.075-2.158-2.142-3.225-3.233-0.175-0.167-0.283-0.4-0.358-0.508z"></path>
<path d="M12.967 7.983c0.1 0.058 0.317 0.142 0.475 0.292 0.825 0.808 1.642 1.625 2.45 2.45 0.358 0.367 0.383 0.792 0.083 1.108-0.308 0.325-0.758 0.308-1.133-0.058-0.825-0.808-1.633-1.633-2.45-2.45-0.258-0.258-0.367-0.558-0.217-0.908 0.125-0.275 0.358-0.425 0.792-0.433z"></path>
</svg>
