<!-- Generated by IcoMoon.io -->
<svg version="1.1" xmlns="http://www.w3.org/2000/svg" width="33" height="32" viewBox="0 0 33 32">
<title>money</title>
<path d="M24.774 32c-6.535 0-13.077 0-19.613 0-0.071-0.019-0.142-0.052-0.213-0.065-2.323-0.31-4.194-1.974-4.768-4.252-0.071-0.277-0.123-0.561-0.181-0.845 0-7.226 0-14.452 0-21.677 0.019-0.071 0.052-0.142 0.065-0.213 0.323-2.355 2.006-4.232 4.316-4.787 0.258-0.065 0.523-0.11 0.781-0.161 7.355 0 14.71 0 22.065 0 0.026 0.019 0.052 0.039 0.084 0.045 1.742 0.413 2.619 1.516 2.619 3.31 0 2.903 0 5.8-0.006 8.703 0 0.239 0.071 0.387 0.258 0.542 1.323 1.077 2.2 2.452 2.606 4.11 0.103 0.426 0.168 0.858 0.245 1.29 0 0.387 0 0.774 0 1.161-0.019 0.071-0.052 0.142-0.058 0.213-0.226 2.135-1.194 3.865-2.832 5.232-0.11 0.090-0.194 0.277-0.206 0.419-0.026 0.452-0.006 0.903-0.013 1.355-0.032 2.587-1.794 4.806-4.31 5.432-0.271 0.077-0.555 0.129-0.839 0.187zM27.916 24.768c-0.219 0-0.348 0-0.477 0-2.968 0-5.935 0.013-8.903-0.006-3.381-0.019-5.8-3.232-4.923-6.497 0.594-2.219 2.606-3.787 4.916-3.8 2.987-0.019 5.981-0.006 8.968-0.006 0.123 0 0.245 0 0.381 0 0-0.748 0.013-1.452-0.013-2.148-0.006-0.187-0.103-0.4-0.213-0.561-0.239-0.342-0.594-0.413-0.994-0.413-6.955 0.006-13.916 0-20.871 0.006-1.29 0-2.458-0.361-3.497-1.129-0.065-0.045-0.135-0.084-0.226-0.135-0.006 0.090-0.013 0.142-0.013 0.194 0 5.387-0.006 10.774 0.006 16.161 0.006 1.903 1.632 3.497 3.548 3.503 6.239 0.006 12.471 0.006 18.71 0 1.658 0 3.161-1.2 3.458-2.832 0.142-0.748 0.103-1.529 0.142-2.335zM29.845 15.174c-0.039 0.026-0.065 0.039-0.071 0.052-0.439 0.948-1.213 1.29-2.219 1.284-2.935-0.013-5.871-0.006-8.8-0.006-0.213 0-0.432 0-0.645 0.039-1.665 0.29-2.768 1.71-2.626 3.361 0.135 1.6 1.503 2.806 3.181 2.806 3.406 0 6.813 0 10.219 0.006 0.219 0 0.381-0.058 0.535-0.226 1.29-1.413 1.774-3.065 1.465-4.942-0.142-0.865-0.49-1.665-1.039-2.374zM27.877 9.458c0-0.11 0-0.219 0-0.323 0-1.968 0-3.935 0-5.903 0-0.768-0.406-1.174-1.168-1.174-7 0-14 0-21 0-2.161 0-3.806 1.768-3.645 3.916 0.065 0.832 0.387 1.561 1.039 2.232 0-0.187 0-0.29 0-0.394 0-1.174 0-2.342 0-3.516 0-0.8 0.394-1.2 1.181-1.2 7.116 0 14.232 0 21.355 0 0.794 0 1.194 0.394 1.194 1.187 0 1.548 0 3.097 0 4.645 0 0.116 0 0.232 0 0.329 0.368 0.077 0.69 0.135 1.045 0.2zM25.794 5.161c0-0.355 0-0.684 0-1.013-7.232 0-14.445 0-21.652 0 0 0.355 0 0.677 0 1.013 7.226 0 14.426 0 21.652 0zM4.135 7.213c7.239 0 14.445 0 21.665 0 0-0.342 0-0.671 0-1.006-7.232 0-14.445 0-21.665 0 0 0.348 0 0.665 0 1.006zM25.8 8.271c-7.245 0-14.452 0-21.677 0 0 0.103 0.013 0.194 0 0.271-0.065 0.335 0.097 0.503 0.406 0.555 0.413 0.071 0.819 0.187 1.232 0.187 6.568 0.013 13.135 0.006 19.703 0.006 0.116 0 0.226 0 0.342 0-0.006-0.361-0.006-0.677-0.006-1.019z"></path>
<path d="M20.639 19.606c0.006 1.123-0.91 2.052-2.039 2.065s-2.077-0.929-2.071-2.065c0.006-1.123 0.935-2.052 2.052-2.052 1.123 0 2.052 0.929 2.058 2.052z"></path>
</svg>
