<!-- Generated by IcoMoon.io -->
<svg version="1.1" xmlns="http://www.w3.org/2000/svg" width="43" height="32" viewBox="0 0 43 32">
<title>nonimage</title>
<path d="M42.67 29.838c-0.017 0.052-0.052 0.096-0.061 0.156-0.313 1.363-0.912 1.875-2.327 1.997-0.156 0.017-0.304 0.017-0.46 0.017-10.878 0-21.756 0-32.625 0-1.615 0-2.7-0.955-2.917-2.561-0.009-0.052 0-0.104 0-0.226 0.2 0 0.391 0 0.582 0 10.748 0 21.504-0.017 32.252 0.017 2.17 0.009 2.709-1.207 2.787-2.743 0.026-0.486-0.052-0.972-0.052-1.459-0.009-6.789-0.017-13.587-0.026-20.375 0-0.148 0-0.304 0-0.451 1.155-0.052 2.318 0.738 2.683 1.78 0.052 0.139 0.104 0.278 0.156 0.417 0.009 7.813 0.009 15.618 0.009 23.431z"></path>
<path d="M19.368 27.737c-5.461 0-10.921 0-16.373 0-0.347 0-0.695-0.026-1.033-0.104-1.155-0.26-1.867-1.146-1.953-2.387-0.009-0.156-0.009-0.313-0.009-0.46 0-7.266 0-14.533 0.009-21.791 0-0.373 0.026-0.755 0.122-1.111 0.278-1.129 1.189-1.806 2.457-1.875 0.165-0.009 0.339-0.009 0.504-0.009 10.739 0 21.469 0 32.208 0 0.304 0 0.616 0.009 0.912 0.061 1.285 0.208 1.979 0.929 2.153 2.231 0.035 0.243 0.043 0.495 0.043 0.747 0 7.249 0 14.498 0 21.747 0 0.287-0.017 0.582-0.052 0.868-0.148 1.285-0.886 1.979-2.188 2.084-0.304 0.026-0.608 0.017-0.92 0.017-5.296 0-10.583 0-15.878 0 0 0 0-0.009 0-0.017zM35.568 25.072c0-7.44 0-14.837 0-22.259-10.904 0-21.799 0-32.695 0 0 7.431 0 14.845 0 22.259 10.904 0 21.782 0 32.695 0z"></path>
<path d="M27.043 8.36c0.2 0.278 0.373 0.521 0.538 0.755 2.084 2.934 4.167 5.86 6.233 8.794 0.13 0.191 0.217 0.451 0.217 0.686 0.017 1.502 0.009 2.995 0.009 4.497 0 0.139-0.009 0.269-0.017 0.434-9.897 0-19.776 0-29.734 0 1.432-1.797 2.83-3.542 4.245-5.313 0.99 0.877 1.945 1.736 2.934 2.622 2.379-2.726 4.749-5.443 7.162-8.204 0.92 0.964 1.823 1.91 2.761 2.882 1.884-2.379 3.75-4.74 5.652-7.154z"></path>
<path d="M10.583 4.072c1.988 0 3.585 1.554 3.585 3.499 0 1.936-1.597 3.507-3.577 3.507s-3.585-1.571-3.594-3.507c0-1.936 1.597-3.499 3.585-3.499z"></path>
</svg>
