<!-- Generated by IcoMoon.io -->
<svg version="1.1" xmlns="http://www.w3.org/2000/svg" width="32" height="32" viewBox="0 0 32 32">
<title>odnoklassniki</title>
<path d="M16.075 13.259c1.227 0 2.197-0.971 2.197-2.187 0-1.205-0.971-2.187-2.165-2.197-1.227-0.011-2.208 0.96-2.219 2.176 0 1.227 0.971 2.197 2.187 2.208z"></path>
<path d="M24.533 0h-17.067c-4.128 0-7.467 3.339-7.467 7.467v17.067c0 4.128 3.339 7.467 7.467 7.467h17.067c4.128 0 7.467-3.339 7.467-7.467v-17.067c0-4.128-3.339-7.467-7.467-7.467zM16.128 5.771c2.955 0.032 5.312 2.432 5.269 5.365-0.043 2.923-2.453 5.269-5.376 5.237s-5.28-2.453-5.237-5.376c0.032-2.901 2.443-5.269 5.344-5.227zM18.251 20.875c0.939 0.939 1.888 1.877 2.837 2.805 0.395 0.384 0.587 0.843 0.48 1.387s-0.437 0.917-0.971 1.088c-0.544 0.171-1.035 0.043-1.451-0.352-0.843-0.8-1.664-1.621-2.496-2.432-0.128-0.128-0.267-0.235-0.373-0.373-0.171-0.203-0.288-0.192-0.469 0-0.832 0.907-1.685 1.792-2.528 2.699-0.341 0.363-0.736 0.565-1.237 0.512-0.565-0.053-0.981-0.341-1.205-0.875s-0.149-1.056 0.235-1.493c0.544-0.597 1.109-1.173 1.664-1.76 0.459-0.48 0.907-0.949 1.376-1.44-0.683-0.235-1.323-0.416-1.941-0.672-0.512-0.224-1.003-0.501-1.472-0.811-0.704-0.459-0.853-1.365-0.395-2.027 0.459-0.651 1.333-0.8 2.016-0.341 2.197 1.461 5.184 1.461 7.36 0 0.683-0.459 1.557-0.309 2.016 0.341 0.459 0.64 0.299 1.536-0.363 2.016-0.907 0.651-1.92 1.067-2.997 1.344-0.096 0.021-0.192 0.053-0.341 0.085 0.107 0.139 0.171 0.224 0.256 0.299z"></path>
</svg>
