<!-- Generated by IcoMoon.io -->
<svg version="1.1" xmlns="http://www.w3.org/2000/svg" width="46" height="32" viewBox="0 0 46 32">
<title>ok</title>
<path d="M17.365 23.614c0.113-0.16 0.207-0.329 0.339-0.461 7.304-7.313 14.616-14.626 21.92-21.929 1.289-1.289 2.927-1.581 4.367-0.772 1.911 1.064 2.381 3.633 0.96 5.299-0.141 0.169-0.301 0.32-0.452 0.48-8.16 8.16-16.32 16.32-24.489 24.489-1.722 1.722-3.736 1.722-5.449 0-4.471-4.471-8.941-8.941-13.402-13.412-1.261-1.261-1.515-2.946-0.668-4.376 1.158-1.967 3.812-2.296 5.496-0.659 1.365 1.327 2.682 2.682 4.028 4.019 2.325 2.334 4.659 4.659 6.984 6.993 0.094 0.075 0.188 0.16 0.367 0.329z"></path>
</svg>
