<!-- Generated by IcoMoon.io -->
<svg version="1.1" xmlns="http://www.w3.org/2000/svg" width="114" height="32" viewBox="0 0 114 32">
<title>other</title>
<path d="M32.023 16.012c0 8.843-7.169 16.012-16.012 16.012s-16.012-7.169-16.012-16.012c0-8.843 7.169-16.012 16.012-16.012s16.012 7.169 16.012 16.012z"></path>
<path d="M73.176 16.012c0 8.843-7.169 16.012-16.012 16.012s-16.012-7.169-16.012-16.012c0-8.843 7.169-16.012 16.012-16.012s16.012 7.169 16.012 16.012z"></path>
<path d="M114.329 16.012c0 8.843-7.169 16.012-16.012 16.012s-16.012-7.169-16.012-16.012c0-8.843 7.169-16.012 16.012-16.012s16.012 7.169 16.012 16.012z"></path>
</svg>
