<!-- Generated by IcoMoon.io -->
<svg version="1.1" xmlns="http://www.w3.org/2000/svg" width="26" height="32" viewBox="0 0 26 32">
<title>tasks</title>
<path d="M23.040 32c-6.832 0-13.648 0-20.48 0-1.904-0.656-2.672-2-2.576-3.984 0.080-2 0.016-4 0.016-6 0-4.816 0-9.648 0-14.464 0-1.888 1.312-3.216 3.2-3.264 0.64-0.016 1.28 0 1.92 0 0.768 0 1.52 0 2.336 0 0.096-1.664-0.384-3.424 1.504-4.288 2.56 0 5.12 0 7.68 0 1.936 0.864 1.376 2.688 1.504 4.272 1.312 0 2.544 0 3.76 0 2.464 0 3.696 1.216 3.696 3.664 0 6.688-0.032 13.376 0.016 20.064 0.032 2-0.672 3.344-2.576 4zM6.352 6.4c-0.896 0-1.744 0-2.592 0-1.344 0-1.632 0.288-1.632 1.648 0 6.72 0 13.44 0 20.16 0 1.392 0.288 1.664 1.712 1.664 5.968 0 11.952 0 17.92 0 1.456 0 1.728-0.272 1.728-1.712 0-6.688 0-13.392 0-20.080 0-0.272 0.080-0.592-0.048-0.784-0.24-0.336-0.576-0.816-0.912-0.848-1.072-0.112-2.16-0.048-3.28-0.048-0.016 0.224-0.032 0.384-0.032 0.544-0.032 1.936-0.752 2.656-2.672 2.656-2.24 0-4.48 0-6.72 0-2.88 0-3.216-0.304-3.472-3.2zM9.632 4.208c2.16 0 4.256 0 6.32 0 0-0.72 0-1.376 0-2.032-2.144 0-4.224 0-6.32 0 0 0.704 0 1.344 0 2.032z"></path>
<path d="M12.832 21.312c2.048 0 4.096-0.016 6.144 0 0.992 0.016 1.584 0.752 1.168 1.472-0.192 0.32-0.688 0.656-1.056 0.656-4.176 0.048-8.352 0.032-12.544 0.016-0.752 0-1.232-0.48-1.216-1.104s0.496-1.040 1.264-1.040c2.080 0 4.16 0 6.24 0z"></path>
<path d="M12.88 12.8c2 0 3.984 0 5.984 0 0.88 0 1.392 0.4 1.392 1.072s-0.496 1.056-1.408 1.056c-4.048 0-8.096 0-12.128 0-0.896 0-1.408-0.4-1.392-1.056 0-0.656 0.528-1.056 1.408-1.056 2.048-0.016 4.096-0.016 6.144-0.016z"></path>
<path d="M12.88 17.072c2 0 3.984 0 5.984 0 0.896 0 1.408 0.384 1.392 1.056 0 0.656-0.512 1.056-1.408 1.056-4.048 0-8.096 0-12.128 0-0.88 0-1.392-0.4-1.392-1.072s0.496-1.056 1.408-1.056c2.048 0.016 4.096 0.016 6.144 0.016z"></path>
</svg>
