<!-- Generated by IcoMoon.io -->
<svg version="1.1" xmlns="http://www.w3.org/2000/svg" width="32" height="32" viewBox="0 0 32 32">
<title>time</title>
<path d="M17.486 3.084c-0.559 0-1.073 0.006-1.594 0-0.735-0.006-1.347-0.475-1.522-1.145-0.26-1.002 0.501-1.932 1.613-1.939 1.802-0.006 3.597 0 5.399 0 0.241 0 0.475 0 0.716 0 0.898 0.020 1.587 0.664 1.6 1.509 0.013 0.839-0.696 1.542-1.587 1.568-0.507 0.013-1.015 0-1.574 0 0 0.579-0.006 1.138 0.013 1.698 0 0.052 0.15 0.13 0.234 0.143 1.548 0.215 3.032 0.651 4.411 1.379 3.871 2.043 6.258 5.237 7.045 9.524 1.177 6.427-2.14 12.607-8.164 15.073-4.671 1.913-9.14 1.321-13.29-1.568-0.761-0.533-0.917-1.451-0.403-2.173 0.507-0.716 1.457-0.865 2.212-0.299 1.067 0.8 2.218 1.425 3.493 1.828 4.521 1.418 9.602-0.494 12.067-4.547 2.992-4.918 1.62-11.131-3.168-14.37-3.806-2.57-8.574-2.498-12.282 0.241-1.112 0.82-2.446 0.208-2.589-0.943-0.078-0.598 0.163-1.080 0.638-1.444 1.913-1.451 4.059-2.348 6.434-2.667 0.234-0.033 0.312-0.098 0.306-0.338-0.020-0.501-0.006-0.995-0.006-1.529z"></path>
<path d="M19.048 15.704c0.247 0.104 0.455-0.072 0.67-0.247 1.177-0.956 2.361-1.9 3.545-2.856 0.371-0.299 0.781-0.377 1.216-0.182 0.397 0.176 0.611 0.501 0.644 0.943 0.026 0.345-0.117 0.631-0.332 0.891-0.95 1.184-1.893 2.368-2.849 3.545-0.143 0.176-0.202 0.345-0.189 0.585 0.072 1.295-0.885 2.518-2.16 2.797-1.314 0.293-2.648-0.384-3.168-1.62-0.52-1.23-0.098-2.654 1.008-3.389 0.468-0.319 0.982-0.481 1.613-0.468z"></path>
<path d="M6.408 12.399c1.691 0 3.383 0 5.068 0 0.553 0 0.956 0.26 1.197 0.748 0.228 0.455 0.182 0.911-0.104 1.321-0.299 0.429-0.729 0.579-1.243 0.579-2.674-0.007-5.354 0-8.028 0-0.664 0-1.321 0.013-1.984-0.007-0.677-0.020-1.171-0.462-1.301-1.106-0.111-0.559 0.195-1.164 0.755-1.405 0.189-0.085 0.416-0.117 0.631-0.117 1.672-0.020 3.344-0.013 5.009-0.013 0 0 0 0 0 0z"></path>
<path d="M7.657 17.148c1.275 0 2.557-0.006 3.832 0 0.631 0.006 1.171 0.436 1.295 1.028 0.13 0.618-0.182 1.243-0.768 1.49-0.195 0.078-0.423 0.111-0.631 0.111-2.479 0.006-4.957 0.006-7.436 0.006-0.722 0-1.262-0.403-1.405-1.021-0.143-0.611 0.163-1.249 0.755-1.496 0.208-0.091 0.462-0.117 0.696-0.117 1.216-0.013 2.44-0.006 3.663 0 0-0.006 0-0.006 0 0z"></path>
<path d="M8.665 24.512c-0.898 0-1.796 0-2.693 0-0.807 0-1.379-0.553-1.386-1.321 0-0.735 0.572-1.314 1.36-1.321 1.828-0.013 3.663-0.013 5.491 0 0.69 0.006 1.236 0.442 1.347 1.047 0.117 0.605-0.189 1.223-0.761 1.47-0.189 0.085-0.416 0.117-0.631 0.117-0.904 0.013-1.815 0.006-2.726 0.006z"></path>
</svg>
