<!-- Generated by IcoMoon.io -->
<svg version="1.1" xmlns="http://www.w3.org/2000/svg" width="32" height="32" viewBox="0 0 32 32">
<title>tool</title>
<path d="M32.039 9.86c-0.013 6.218-5.711 10.914-11.837 9.717-0.416-0.078-0.676 0-0.963 0.299-3.486 3.499-6.985 6.985-10.472 10.485-1.249 1.249-2.732 1.821-4.475 1.574-2.003-0.286-3.382-1.457-4.006-3.356-0.637-1.951-0.208-3.746 1.236-5.216 3.46-3.499 6.946-6.972 10.446-10.433 0.416-0.403 0.52-0.767 0.429-1.353-1.184-7.259 5.411-13.151 12.475-11.187 0.169 0.052 0.338 0.091 0.494 0.156 0.989 0.403 1.249 1.496 0.494 2.263-1.314 1.353-2.667 2.667-3.994 4.006-1.067 1.080-1.119 2.485-0.13 3.46s2.381 0.924 3.46-0.143c1.288-1.275 2.576-2.576 3.863-3.85 0.976-0.976 2.068-0.715 2.472 0.598 0.13 0.429 0.247 0.872 0.325 1.327 0.091 0.533 0.13 1.093 0.182 1.652zM22.036 2.823c-0.013-0.039-0.039-0.091-0.052-0.13-0.377 0.039-0.754 0.039-1.132 0.104-4.358 0.859-6.881 5.021-5.607 9.275 0.221 0.754 0.117 1.34-0.468 1.873-0.793 0.741-1.548 1.522-2.315 2.289-3.031 3.005-6.062 6.010-9.080 9.028-1.067 1.067-1.002 2.615 0.117 3.538 0.976 0.806 2.25 0.728 3.226-0.234 3.746-3.733 7.48-7.467 11.213-11.213 0.598-0.598 1.197-0.794 2.042-0.533 4.189 1.262 8.52-1.47 9.236-5.789 0.052-0.338 0.039-0.689 0.052-1.028-0.065-0.026-0.13-0.052-0.195-0.091-0.78 0.806-1.509 1.665-2.341 2.433-2.55 2.341-6.725 1.431-8.026-1.756-0.82-2.003-0.416-3.824 1.028-5.411 0.767-0.806 1.548-1.574 2.302-2.354z"></path>
</svg>
