<!-- Generated by IcoMoon.io -->
<svg version="1.1" xmlns="http://www.w3.org/2000/svg" width="21" height="32" viewBox="0 0 21 32">
<title>trash</title>
<path d="M0.847 8.281c-0.765-0.184-0.847-0.286-0.847-1.050 0-0.986 0-1.962 0-2.948 0-0.617 0.212-0.82 0.829-0.82 1.861 0 3.712 0 5.573 0 0.166 0 0.332 0 0.562 0 0-0.847 0-1.649 0-2.459 0-0.847 0.157-1.004 0.986-1.004 1.594 0 3.196 0 4.79 0 0.718 0 0.903 0.184 0.912 0.893 0 0.838 0 1.676 0 2.57 0.295 0 0.534 0 0.774 0 1.778 0 3.565 0 5.343 0 0.645 0 0.847 0.203 0.847 0.857 0 0.986 0 1.962 0 2.948 0 0.709-0.101 0.838-0.847 1.013 0 0.184 0 0.378 0 0.571 0 7.351 0 14.71 0 22.061 0 0.949-0.129 1.087-1.096 1.087-5.591 0-11.173 0-16.765 0-0.912 0-1.059-0.147-1.059-1.078 0-7.341 0-14.674 0-22.015 0-0.193 0-0.396 0-0.626zM2.146 30.701c5.453 0 10.879 0 16.322 0 0-7.489 0-14.959 0-22.448-5.453 0-10.879 0-16.322 0 0 7.48 0 14.941 0 22.448zM19.316 4.771c-6.024 0-12.011 0-17.999 0 0 0.746 0 1.455 0 2.165 6.015 0 11.993 0 17.999 0 0-0.728 0-1.428 0-2.165zM8.263 3.436c1.372 0 2.717 0 4.090 0 0-0.728 0-1.437 0-2.137-1.382 0-2.727 0-4.090 0 0 0.728 0 1.419 0 2.137z"></path>
<path d="M6.632 19.482c0 2.349 0 4.689 0 7.037 0 0.516-0.184 0.774-0.553 0.811-0.378 0.037-0.617-0.157-0.7-0.525-0.037-0.166-0.018-0.332-0.018-0.507 0-4.55 0-9.11 0-13.66 0-0.074 0-0.157 0-0.23 0.009-0.525 0.258-0.829 0.663-0.82 0.387 0.009 0.617 0.304 0.617 0.811-0.009 2.358-0.009 4.725-0.009 7.083z"></path>
<path d="M13.983 19.408c0-2.349 0-4.689 0-7.037 0-0.405 0.138-0.709 0.562-0.765 0.368-0.055 0.617 0.157 0.7 0.525 0.037 0.166 0.018 0.332 0.018 0.507 0 4.55 0 9.11 0 13.66 0 0.074 0 0.157 0 0.23-0.009 0.534-0.249 0.82-0.663 0.811-0.396-0.009-0.617-0.276-0.617-0.801 0-2.377 0-4.753 0-7.13z"></path>
<path d="M9.672 19.5c0-2.312 0-4.633 0-6.945 0-0.138-0.018-0.276 0.009-0.415 0.064-0.341 0.286-0.553 0.636-0.543 0.35 0 0.562 0.221 0.626 0.562 0.018 0.12 0.009 0.249 0.009 0.368 0 4.633 0 9.267 0 13.891 0 0.12 0.009 0.249-0.009 0.368-0.064 0.341-0.276 0.543-0.636 0.543s-0.562-0.212-0.626-0.562c-0.028-0.138-0.009-0.276-0.009-0.415 0-2.275 0-4.56 0-6.853z"></path>
</svg>
