<!-- Generated by IcoMoon.io -->
<svg version="1.1" xmlns="http://www.w3.org/2000/svg" width="32" height="32" viewBox="0 0 32 32">
<title>vk</title>
<path d="M24.533 0h-17.067c-4.128 0-7.467 3.339-7.467 7.467v17.067c0 4.128 3.339 7.467 7.467 7.467h17.067c4.128 0 7.467-3.339 7.467-7.467v-17.067c0-4.128-3.339-7.467-7.467-7.467zM26.197 22.272c-0.149 0.043-0.299 0.053-0.448 0.053-0.725 0.011-1.44-0.011-2.165 0.011-0.459 0.011-0.832-0.149-1.141-0.469-0.267-0.267-0.501-0.555-0.768-0.821-0.629-0.619-1.248-1.237-1.899-1.835-0.235-0.213-0.512-0.384-0.8-0.523-0.213-0.096-0.48-0.139-0.725-0.149-0.256-0.011-0.373 0.117-0.416 0.373-0.021 0.16-0.032 0.32-0.032 0.48 0 0.661 0 1.333 0 1.995 0 0.523-0.171 0.747-0.693 0.853-0.971 0.181-1.92 0.085-2.859-0.192-1.739-0.512-3.168-1.525-4.352-2.88-1.248-1.44-2.229-3.061-3.104-4.747-0.587-1.141-1.099-2.325-1.387-3.584-0.043-0.181-0.075-0.384-0.075-0.587 0-0.299 0.149-0.48 0.448-0.544 0.128-0.032 0.256-0.043 0.395-0.043 0.725 0 1.44 0 2.165 0 0.651 0 0.885 0.16 1.12 0.779 0.299 0.768 0.587 1.547 0.928 2.293 0.512 1.131 1.109 2.219 1.888 3.2 0.171 0.213 0.373 0.416 0.576 0.608 0.096 0.085 0.213 0.16 0.331 0.213 0.288 0.128 0.501 0.011 0.555-0.299 0.032-0.16 0.043-0.32 0.043-0.48 0-1.141 0.011-2.293 0-3.435-0.011-0.64-0.181-1.237-0.608-1.728-0.085-0.096-0.16-0.192-0.224-0.299-0.213-0.373-0.011-0.779 0.416-0.843 0.064-0.011 0.139-0.011 0.203-0.011 1.152 0 2.304 0 3.456 0 0.533 0 0.747 0.192 0.757 0.736 0.011 0.8 0 1.6 0 2.4 0 0 0 0 0 0 0 0.747 0 1.504 0 2.251 0 0.128 0.011 0.256 0.032 0.373 0.075 0.373 0.32 0.512 0.64 0.299 0.309-0.203 0.597-0.448 0.843-0.725 0.811-0.917 1.44-1.952 2.005-3.029 0.267-0.512 0.512-1.035 0.747-1.557 0.213-0.501 0.565-0.747 1.109-0.736 0.747 0.011 1.483 0 2.229 0 0.075 0 0.139 0 0.213 0.011 0.48 0.043 0.715 0.32 0.555 0.779-0.181 0.533-0.384 1.077-0.672 1.557-0.715 1.205-1.493 2.368-2.24 3.552-0.043 0.075-0.096 0.139-0.139 0.203-0.427 0.619-0.416 0.821 0.107 1.376 0.789 0.853 1.579 1.696 2.347 2.56 0.309 0.341 0.565 0.747 0.8 1.141 0.139 0.224 0.224 0.48 0.277 0.736 0.085 0.32-0.107 0.597-0.437 0.683z"></path>
</svg>
