<?xml version="1.0" encoding="utf-8"?>
<!-- Generator: Adobe Illustrator 23.0.2, SVG Export Plug-In . SVG Version: 6.00 Build 0)  -->
<svg version="1.1" id="Слой_2" xmlns="http://www.w3.org/2000/svg" xmlns:xlink="http://www.w3.org/1999/xlink" x="0px" y="0px"
	 viewBox="0 0 188 40" style="enable-background:new 0 0 188 40;" xml:space="preserve">
<style type="text/css">
	.st0{fill:#A9EEC1;}
	.st1{fill:#38C173;}
	.st2{fill:#FFFFFF;}
</style>
<g>
	<path class="st0" d="M38.5,15.8l0-4c0,0,0-0.7-0.9-1.3C35.5,9.3,23,1.9,20.1,0.2c-0.7-0.4-1.7,0.1-1.7,0.1S5.5,7.8,1.7,9.9
		c-1.2,0.6-1.4,1.2-1.4,1.9c0,5.4,0,5.4,0,5.4c0,0,0,0.9,0.9,1.4c2,1.2,5.6,3.3,7.3,4.3c1.2,0.7,2.3,0.1,2.3,0.1l12.8-7.4
		c0,0,1.8-1,0.3-1.9c-0.8-0.5-2.7-1.6-3.6-2.1c-0.9-0.5-1.5-0.1-1.5-0.1l-8.3,4.8c0,0-0.7,0.4-1.2,0.1c-0.6-0.4-1.9-1.1-2.5-1.5
		c-0.5-0.3,0-0.6,0-0.6l12-6.9c0,0,0.6-0.3,1.4,0.1c2.6,1.5,13.4,7.9,16.4,9.7C38.8,18.4,38.5,15.8,38.5,15.8z"/>
	<path class="st1" d="M0,24.2l0,4c0,0,0,0.7,0.9,1.3c2.1,1.3,14.7,8.6,17.6,10.4c0.7,0.4,1.7-0.1,1.7-0.1s12.9-7.5,16.7-9.6
		c1.2-0.6,1.4-1.2,1.4-1.9c0-5.4,0-5.4,0-5.4c0,0,0-0.9-0.9-1.4c-2-1.2-5.6-3.3-7.3-4.3c-1.2-0.7-2.3-0.1-2.3-0.1L15,24.5
		c0,0-1.8,1-0.3,1.9c0.8,0.5,2.7,1.6,3.6,2.1c0.9,0.5,1.5,0.1,1.5,0.1l8.3-4.8c0,0,0.7-0.4,1.2-0.1c0.6,0.4,1.9,1.1,2.5,1.5
		c0.5,0.3,0,0.6,0,0.6l-12,6.9c0,0-0.6,0.3-1.4-0.1C15.9,31.2,5.1,24.8,2.1,23C-0.3,21.6,0,24.2,0,24.2z"/>
	<path class="st1" d="M186.2,32H51c-1,0-1.8-0.8-1.8-1.8V10.5c0-1,0.8-1.8,1.8-1.8h135.2c1,0,1.8,0.8,1.8,1.8v19.7
		C188,31.2,187.2,32,186.2,32z"/>
	<g>
		<g>
			<path class="st2" d="M59.7,25.8V15.3c0-0.8,0.6-1.4,1.3-1.4h7.9c0.8,0,1.3,0.6,1.3,1.4v10.5c0,0.8-0.6,1.4-1.3,1.4
				c-0.7,0-1.3-0.6-1.3-1.4v-9.5h-5.3v9.5c0,0.8-0.6,1.4-1.3,1.4C60.2,27.2,59.7,26.6,59.7,25.8z"/>
			<path class="st2" d="M86.1,20.4c0,3.8-3,6.8-6.9,6.8c-3.8,0-6.8-3-6.8-6.8c0-3.8,3-6.8,6.8-6.8C83.1,13.7,86.1,16.7,86.1,20.4z
				 M75.1,20.4c0,2.5,1.7,4.3,4.1,4.3c2.4,0,4.1-1.8,4.1-4.3c0-2.5-1.7-4.3-4.1-4.3C76.9,16.1,75.1,17.9,75.1,20.4z"/>
			<path class="st2" d="M101,15.1v10.8c0,0.8-0.6,1.4-1.3,1.4c-0.8,0-1.3-0.6-1.3-1.4v-6.4l-2.4,3.9c-0.4,0.6-0.7,0.8-1.3,0.8
				c-0.5,0-0.9-0.3-1.3-0.8L91,19.3v6.5c0,0.8-0.6,1.4-1.3,1.4c-0.8,0-1.3-0.6-1.3-1.4V15.1c0-0.8,0.5-1.4,1.3-1.4
				c0.6,0,0.9,0.3,1.4,1l3.6,5.8l3.6-5.8c0.5-0.8,0.8-1,1.4-1C100.4,13.7,101,14.3,101,15.1z"/>
			<path class="st2" d="M116.9,20.4c0,3.8-3,6.8-6.9,6.8s-6.8-3-6.8-6.8c0-3.8,3-6.8,6.8-6.8C113.9,13.7,116.9,16.7,116.9,20.4z
				 M105.9,20.4c0,2.5,1.7,4.3,4.1,4.3c2.4,0,4.1-1.8,4.1-4.3c0-2.5-1.7-4.3-4.1-4.3C107.6,16.1,105.9,17.9,105.9,20.4z"/>
			<path class="st2" d="M136.4,15v9.5h0.4c0.8,0,1.3,0.6,1.3,1.4v2.7c0,0.8-0.6,1.4-1.3,1.4c-0.8,0-1.3-0.6-1.3-1.4V27h-15
				c-0.8,0-1.3-0.6-1.3-1.4V15c0-0.8,0.6-1.4,1.3-1.4c0.8,0,1.3,0.6,1.3,1.4v9.5h4.7V15c0-0.8,0.6-1.4,1.3-1.4
				c0.8,0,1.3,0.6,1.3,1.4v9.5h4.7V15c0-0.8,0.6-1.4,1.3-1.4C135.9,13.7,136.4,14.3,136.4,15z"/>
			<path class="st2" d="M140.1,25.8V15.1c0-0.8,0.5-1.4,1.3-1.4c0.8,0,1.3,0.6,1.3,1.4v3.9h5.7V15c0-0.8,0.5-1.4,1.3-1.4
				c0.8,0,1.3,0.6,1.3,1.4v10.8c0,0.8-0.6,1.4-1.3,1.4c-0.8,0-1.3-0.6-1.3-1.4v-4.5h-5.7v4.5c0,0.8-0.6,1.4-1.3,1.4
				C140.7,27.2,140.1,26.6,140.1,25.8z"/>
			<path class="st2" d="M165.2,15v10.8c0,0.8-0.6,1.4-1.3,1.4c-0.7,0-1.3-0.6-1.3-1.4v-7.2l-6.1,8c-0.3,0.4-0.6,0.6-1.1,0.6
				c-0.7,0-1.3-0.6-1.3-1.3V15c0-0.8,0.6-1.4,1.3-1.4c0.8,0,1.3,0.6,1.3,1.4v7.3l6-7.8c0.3-0.4,0.6-0.8,1.3-0.8
				C164.6,13.7,165.2,14.3,165.2,15z"/>
			<path class="st2" d="M170.8,15v10.8c0,0.8-0.6,1.4-1.3,1.4c-0.8,0-1.3-0.6-1.3-1.4V15c0-0.8,0.5-1.4,1.3-1.4
				C170.2,13.7,170.8,14.3,170.8,15z M178.8,25.9c0,0.7-0.6,1.3-1.2,1.3c-0.4,0-0.8-0.2-1.1-0.6l-4.9-5.7c-0.2-0.3-0.4-0.6-0.4-0.9
				c0-0.3,0.1-0.6,0.4-0.8l4.6-5.1c0.3-0.3,0.6-0.4,1-0.4c0.6,0,1.2,0.6,1.2,1.2c0,0.3-0.1,0.6-0.4,0.9l-3.9,4.2l4.3,5.1
				C178.7,25.4,178.8,25.6,178.8,25.9z"/>
		</g>
	</g>
</g>
</svg>
